<?xml version="1.0" encoding="UTF-8"?>
<svg id="Camada_2" data-name="Camada 2" xmlns="http://www.w3.org/2000/svg" xmlns:xlink="http://www.w3.org/1999/xlink" viewBox="0 0 159.7 137.24">
  <defs>
    <style>
      .cls-1 {
        fill: url(#Gradiente_sem_nome_9-4);
      }

      .cls-2 {
        fill: url(#Gradiente_sem_nome_9);
      }

      .cls-3 {
        fill: url(#Gradiente_sem_nome_9-2);
      }

      .cls-4 {
        fill: url(#Gradiente_sem_nome_9-8);
      }

      .cls-5 {
        fill: url(#Gradiente_sem_nome_9-7);
      }

      .cls-6 {
        fill: url(#Gradiente_sem_nome_9-5);
      }

      .cls-7 {
        fill: url(#Gradiente_sem_nome_9-3);
      }

      .cls-8 {
        fill: url(#Gradiente_sem_nome_9-6);
      }
    </style>
    <linearGradient id="Gradiente_sem_nome_9" data-name="Gradiente sem nome 9" x1="14.98" y1="102.5" x2="159.7" y2="102.5" gradientUnits="userSpaceOnUse">
      <stop offset="0" stop-color="#59bbaa"/>
      <stop offset="1" stop-color="#63b450"/>
    </linearGradient>
    <linearGradient id="Gradiente_sem_nome_9-2" data-name="Gradiente sem nome 9" x1="69.73" y1="105.55" x2="111.72" y2="105.55" xlink:href="#Gradiente_sem_nome_9"/>
    <linearGradient id="Gradiente_sem_nome_9-3" data-name="Gradiente sem nome 9" x1="0" y1="113.42" x2="35.97" y2="113.42" xlink:href="#Gradiente_sem_nome_9"/>
    <linearGradient id="Gradiente_sem_nome_9-4" data-name="Gradiente sem nome 9" x1="0" y1="113.42" x2="35.97" y2="113.42" xlink:href="#Gradiente_sem_nome_9"/>
    <linearGradient id="Gradiente_sem_nome_9-5" data-name="Gradiente sem nome 9" x1="30.87" y1="37.98" x2="89.78" y2="37.98" xlink:href="#Gradiente_sem_nome_9"/>
    <linearGradient id="Gradiente_sem_nome_9-6" data-name="Gradiente sem nome 9" x1="86.74" y1="30" x2="157.25" y2="30" xlink:href="#Gradiente_sem_nome_9"/>
    <linearGradient id="Gradiente_sem_nome_9-7" data-name="Gradiente sem nome 9" x1="32.36" y1="45.57" x2="91.03" y2="45.57" xlink:href="#Gradiente_sem_nome_9"/>
    <linearGradient id="Gradiente_sem_nome_9-8" data-name="Gradiente sem nome 9" x1="86.28" y1="38.42" x2="156.84" y2="38.42" xlink:href="#Gradiente_sem_nome_9"/>
  </defs>
  <g id="Layer_3" data-name="Layer 3">
    <g>
      <g>
        <path class="cls-2" d="m91.92,127.68c-.12,0-.25,0-.37-.03l-46.94-7.49c-1.17.2-6.58,1.35-13.71,6.91-.58.45-1.33.61-2.05.43-.71-.18-1.3-.68-1.59-1.36l-12.08-27.87c-.47-1.08-.08-2.33.92-2.96l25.02-15.64c.1-.06.21-.12.32-.17,12.35-5.34,24.35.63,25.39,1.17,5.39,2.55,16.09,4.92,16.2,4.95l18.39,3.45c3.22.6,6.07,2.29,8.01,4.75,1.2,1.52,1.96,3.21,2.27,4.96l32.59-10.02c6.52-2.07,13.09.83,14.94,6.61,1.87,5.92-1.84,12.39-8.27,14.44l-55.51,17.59c-.19.06-.38.09-.57.11l-2.79.17s-.09,0-.14,0Zm-47.29-12.29c.12,0,.25,0,.37.03l47.03,7.51,2.24-.13,55.23-17.5c3.94-1.25,6.26-5.05,5.18-8.47-1.03-3.24-4.98-4.78-8.99-3.51l-35.43,10.89c-.25.11-.52.17-.8.19-1.22.06-2.28-.77-2.5-1.95-.07-.41-.04-.81.08-1.18.19-1.54-.28-3.12-1.36-4.49-1.23-1.56-3.06-2.63-5.15-3.02l-18.47-3.46c-.54-.12-11.46-2.54-17.33-5.33-.03-.02-.07-.03-.1-.05-.1-.05-10.71-5.53-21.17-1.1l-23.13,14.46,10.09,23.26c8.01-5.54,13.74-6.11,14-6.13.07,0,.14,0,.21,0Z"/>
        <path class="cls-3" d="m99.84,111.45c-.85,0-1.72-.08-2.58-.24l-25.6-4.79c-1.29-.24-2.14-1.48-1.9-2.77.24-1.29,1.48-2.14,2.77-1.9l25.6,4.79c2.1.4,4.19.05,5.9-.95,1.6-.95,2.66-2.37,2.96-4.01.24-1.29,1.48-2.13,2.77-1.9,1.29.24,2.14,1.48,1.9,2.77-.56,3.01-2.42,5.57-5.22,7.22-1.98,1.17-4.26,1.77-6.61,1.77Z"/>
        <path class="cls-7" d="m19.9,137.24c-.88,0-1.73-.49-2.14-1.34L.24,99.62c-.27-.57-.31-1.22-.1-1.81.21-.59.64-1.08,1.21-1.36l13.69-6.61c.57-.27,1.22-.31,1.81-.1.59.21,1.08.64,1.36,1.21l17.53,36.29c.27.57.31,1.22.1,1.81-.21.59-.64,1.08-1.21,1.36l-13.69,6.61c-.33.16-.68.24-1.03.24Zm-14.36-37.55l15.46,32.01,9.42-4.55-15.46-32.01-9.42,4.55Z"/>
        <path class="cls-1" d="m19.9,137.24c-.88,0-1.73-.49-2.14-1.34L.24,99.62c-.27-.57-.31-1.22-.1-1.81.21-.59.64-1.08,1.21-1.36l13.69-6.61c.57-.27,1.22-.31,1.81-.1.59.21,1.08.64,1.36,1.21l17.53,36.29c.27.57.31,1.22.1,1.81-.21.59-.64,1.08-1.21,1.36l-13.69,6.61c-.33.16-.68.24-1.03.24Zm-14.36-37.55l15.46,32.01,9.42-4.55-15.46-32.01-9.42,4.55Z"/>
      </g>
      <g>
        <g>
          <path class="cls-6" d="m77.02,61.87c-6.53,0-15.18-1.4-23.22-7.12-11.98-8.51-22.35-36.27-22.78-37.45-.27-.72-.17-1.53.27-2.17.44-.64,1.16-1.02,1.93-1.03,1.11-.01,27.73-.21,43.74,9.53,15.73,9.56,13.08,29.16,11.86,35.06-.08.71-.48,1.35-1.08,1.74-.29.19-.62.32-.98.37-1.52.36-5.1,1.07-9.74,1.07ZM36.76,18.92c3.08,7.53,11.25,25.89,19.79,31.95,10.95,7.79,23.23,6.46,27.86,5.57,1.07-6.24,2.21-21.38-9.92-28.76-11.59-7.05-30.07-8.48-37.73-8.77Z"/>
          <path class="cls-8" d="m100.58,60c-4.77,0-8.41-.6-10.03-.93-.91-.07-1.71-.65-2.04-1.52-.07-.17-.12-.34-.14-.52-1.74-7.1-5.89-31.05,12.93-43.41C120.58.95,153.43.03,154.82,0c.77-.02,1.5.34,1.96.96.46.62.59,1.43.35,2.16-.49,1.47-12.11,36.16-26.44,47.13-10.42,7.98-21.93,9.75-30.1,9.75Zm-7.89-5.37c5.66.93,21.45,2.3,35.11-8.15,10.75-8.22,20.4-32.64,23.65-41.55-8.92.59-32.92,3.05-47.55,12.66-15.26,10.03-12.84,29.5-11.21,37.04Z"/>
          <path class="cls-5" d="m88.65,76.84c-1.12,0-2.11-.79-2.33-1.93-.02-.1-1.95-10.25-3.28-15.19-.04-.15-.06-.29-.08-.44-.09-.27-.22-.65-.4-1.12-1.54-4.1-6.04-14.31-14.58-20.38-13.88-9.87-33.45-18.18-35.64-19.09l1.81-4.39-.92,2.19.94-2.18c2.24.94,22.26,9.43,36.56,19.6,9.61,6.84,14.58,18.08,16.28,22.59.45,1.2.66,1.91.66,1.91.06.21.1.42.1.64,1.36,5.25,3.13,14.57,3.21,14.98.24,1.29-.6,2.53-1.89,2.77-.15.03-.3.04-.44.04Z"/>
        </g>
        <path class="cls-4" d="m88.66,76.84c-.13,0-.26-.01-.39-.03-1.29-.21-2.17-1.43-1.96-2.73.07-.44,1.72-10.45,3.17-16.84,0-.24.02-.48.08-.71,0-.04.24-.9.72-2.34,1.89-5.6,7.51-19.57,18.96-28.31C126.44,12.75,150.74,1.46,153.46.22c1.19-.55,2.62-.03,3.16,1.16.55,1.19.04,2.59-1.15,3.14,0,0-.03.01-.03.01-2.66,1.22-26.52,12.3-43.31,25.12-10.41,7.95-15.59,20.87-17.34,26.05-.21.64-.37,1.16-.48,1.51,0,.16-.02.33-.05.49-1.44,6.18-3.24,17.04-3.25,17.15-.19,1.16-1.2,1.99-2.34,1.99Z"/>
      </g>
    </g>
  </g>
</svg>