<svg xmlns="http://www.w3.org/2000/svg" xmlns:xlink="http://www.w3.org/1999/xlink" viewBox="0 0 182.85 177.48"><defs><style>.cls-1{fill:#565251;}.cls-2{fill:url(#Gradiente_sem_nome_17);}.cls-3{fill:url(#Gradiente_sem_nome_17-2);}.cls-4{fill:url(#Gradiente_sem_nome_17-3);}.cls-5{fill:url(#Gradiente_sem_nome_17-4);}.cls-6{fill:url(#Gradiente_sem_nome_17-5);}.cls-7{fill:url(#Gradiente_sem_nome_17-6);}.cls-8{fill:url(#Gradiente_sem_nome_17-7);}</style><linearGradient id="Gradiente_sem_nome_17" x1="49.16" y1="78.26" x2="102" y2="78.26" gradientUnits="userSpaceOnUse"><stop offset="0" stop-color="#59bbaa"/><stop offset="1" stop-color="#63b450"/></linearGradient><linearGradient id="Gradiente_sem_nome_17-2" x1="52.65" y1="86.31" x2="96.88" y2="86.31" xlink:href="#Gradiente_sem_nome_17"/><linearGradient id="Gradiente_sem_nome_17-3" x1="57.94" y1="92.84" x2="77.3" y2="92.84" xlink:href="#Gradiente_sem_nome_17"/><linearGradient id="Gradiente_sem_nome_17-4" x1="63.45" y1="101.58" x2="91.86" y2="101.58" xlink:href="#Gradiente_sem_nome_17"/><linearGradient id="Gradiente_sem_nome_17-5" x1="68.23" y1="108.64" x2="86.96" y2="108.64" xlink:href="#Gradiente_sem_nome_17"/><linearGradient id="Gradiente_sem_nome_17-6" x1="74.24" y1="114.7" x2="82.65" y2="114.7" xlink:href="#Gradiente_sem_nome_17"/><linearGradient id="Gradiente_sem_nome_17-7" x1="47.55" y1="66.46" x2="104.93" y2="66.46" xlink:href="#Gradiente_sem_nome_17"/></defs><g id="Camada_2" data-name="Camada 2"><g id="Layer_1" data-name="Layer 1"><path class="cls-1" d="M182.85,54H140.4V0H13A13,13,0,0,0,.25,10.57,12.62,12.62,0,0,0,0,13V164.45a12.52,12.52,0,0,0,.25,2.46A13,13,0,0,0,13,177.48H140.4V89h42.45L172.73,71.5ZM4.94,13a8,8,0,0,1,.38-2.47A8.12,8.12,0,0,1,13,4.94h3.44V151.41H13a12.89,12.89,0,0,0-8.1,2.84ZM135.46,162H19v4.93H135.46v5.63H13a8.12,8.12,0,0,1-7.72-5.63,8.19,8.19,0,0,1,0-4.93A8.12,8.12,0,0,1,13,156.35H135.46Zm0-10.57h-114V4.94h114Zm38.82-67.35H140.4V59h33.88L167,71.5Z"/><path class="cls-2" d="M99.22,93.53a13.52,13.52,0,0,1-5.64-1.13A11.92,11.92,0,0,1,89,88.69c-2.3-3-3.55-6.82-4.77-10.56-1.62-5-3.16-9.77-6.88-11.16a7.38,7.38,0,0,0-7.66,1.31c-2.15,1.87-3.23,4.44-4.26,8a22.13,22.13,0,0,1-4.53,9.07A15,15,0,0,1,51,90a1.72,1.72,0,1,1-.23-3.44A11.58,11.58,0,0,0,58.32,83c1.85-2,2.81-4.46,3.77-7.72s2.22-6.9,5.31-9.59a10.78,10.78,0,0,1,5.29-2.53,11.29,11.29,0,0,1,5.84.59c5.27,2,7.14,7.75,9,13.32,1.12,3.46,2.28,7,4.21,9.52s4.72,3.71,8.48,3.47a1.72,1.72,0,0,1,.22,3.44C100,93.51,99.6,93.53,99.22,93.53Z"/><path class="cls-3" d="M95.15,100.73a1.58,1.58,0,0,1-.52-.09A27.31,27.31,0,0,1,88.74,98a20.93,20.93,0,0,1-5-4.23,18.46,18.46,0,0,1-4.06-9.27c-.12-.74-.2-1.47-.27-2.18a11.79,11.79,0,0,0-1.31-5.12,3.38,3.38,0,0,0-3-1.83,2.11,2.11,0,0,0-1.78,1.44A30.38,30.38,0,0,1,55,98a1.72,1.72,0,1,1-1.28-3.19,27,27,0,0,0,16.2-18.89l0-.12,0-.12a5.56,5.56,0,0,1,4.74-3.71,6.14,6.14,0,0,1,3.51.8A7.48,7.48,0,0,1,81,75.4,14.91,14.91,0,0,1,82.8,82c.07.66.14,1.34.24,2a15.07,15.07,0,0,0,3.28,7.57,20.13,20.13,0,0,0,9.36,5.84,1.73,1.73,0,0,1-.53,3.37Z"/><path class="cls-4" d="M59.67,103.66a1.72,1.72,0,0,1-.64-3.32c5.83-2.34,12.8-8,14.87-17a1.72,1.72,0,0,1,3.36.78,26.9,26.9,0,0,1-6.62,12.27,29.06,29.06,0,0,1-10.33,7.13A1.81,1.81,0,0,1,59.67,103.66Z"/><path class="cls-5" d="M65.17,108.49a1.73,1.73,0,0,1-.65-3.32c6-2.44,10.18-7.77,10.64-8.37a4.88,4.88,0,0,1,2.68-2,3.74,3.74,0,0,1,3,.64A9,9,0,0,1,82.59,97l.28.33c1.67,2,3.75,4.38,7.67,5.32a1.72,1.72,0,0,1-.81,3.35c-5-1.21-7.7-4.35-9.47-6.43L80,99.27c-1-1.13-1.31-1.15-1.35-1.15a2.76,2.76,0,0,0-.73.77,31.62,31.62,0,0,1-12.08,9.47A1.64,1.64,0,0,1,65.17,108.49Z"/><path class="cls-6" d="M70,113.69a1.71,1.71,0,0,1-1.29-.58,1.72,1.72,0,0,1,.15-2.43,80.85,80.85,0,0,1,7.44-5.86,4.51,4.51,0,0,1,6.48.27l3.63,3.09a1.73,1.73,0,0,1-2.24,2.63l-3.63-3.09a3.19,3.19,0,0,0-1-.69c-.3,0-1,.44-1.24.62a78.48,78.48,0,0,0-7.13,5.61A1.69,1.69,0,0,1,70,113.69Z"/><path class="cls-7" d="M76,119.06a1.69,1.69,0,0,1-.78-.19,1.72,1.72,0,0,1-.75-2.32A16.46,16.46,0,0,1,80,110.64a1.72,1.72,0,0,1,1.94,2.85,12.79,12.79,0,0,0-4.4,4.64A1.73,1.73,0,0,1,76,119.06Z"/><path class="cls-8" d="M99.55,86.25a9.84,9.84,0,0,1-2.76-.38A8.43,8.43,0,0,1,92.58,83c-2-2.45-3-5.93-4.06-9.62-1.8-6.2-3.65-12.6-10.16-14.83-7.93-2.72-14.49,3.85-17.71,10.3-.85,1.71-1.54,3.44-2.22,5.11a32.55,32.55,0,0,1-2.5,5.37c-1.26,2-2.8,2.82-4.57,2.57a4.21,4.21,0,0,1-2.83-1.76,5.18,5.18,0,0,1-1-3c0-5.38,2.32-11.66,6.37-17.23a37.77,37.77,0,0,1,6.78-7.19A28.87,28.87,0,0,1,69,47.91a19.1,19.1,0,0,1,11.53-.64,21.53,21.53,0,0,1,11,7.56,36.89,36.89,0,0,1,5.15,9.5,59.67,59.67,0,0,1,2.72,9c.3,1.46,1.1,2,1.47,1.9s.76-.82.59-2.38V72.8c0-.1-.64-10-6.11-16a1.73,1.73,0,0,1,2.55-2.33,27.34,27.34,0,0,1,5.91,11.72,36.49,36.49,0,0,1,1.08,6.39c.41,3.79-1.45,5.8-3.48,6.12A4.28,4.28,0,0,1,98,77.6,6.32,6.32,0,0,1,96,74.05c-.85-4.25-3.55-12.64-7.15-17-6.56-8-13.78-7.6-18.68-5.85S60.41,56.81,56.71,61.9,51,72.44,51,77.11c0,.71.45,1.32.83,1.37,1,.14,2.34-3.16,3.41-5.82.66-1.65,1.41-3.52,2.33-5.35a27,27,0,0,1,8.15-9.86,14.79,14.79,0,0,1,13.76-2.17,15.53,15.53,0,0,1,8.62,7.31,43.64,43.64,0,0,1,3.73,9.82c1,3.34,1.88,6.5,3.43,8.41,1,1.27,2.74,2.61,6.85,1.66a1.72,1.72,0,1,1,.78,3.35A14.74,14.74,0,0,1,99.55,86.25Z"/></g></g></svg>