<svg xmlns="http://www.w3.org/2000/svg" viewBox="0 0 130.55 178.04"><defs><style>.cls-1{fill:#565251;}.cls-2{fill:#64b551;}</style></defs><g id="Camada_2" data-name="Camada 2"><g id="Layer_1" data-name="Layer 1"><path class="cls-1" d="M57.76,57.47a3.92,3.92,0,1,1-3.91-3.92A3.91,3.91,0,0,1,57.76,57.47Z"/><path class="cls-1" d="M80.62,57.47a3.92,3.92,0,1,1-3.92-3.92A3.91,3.91,0,0,1,80.62,57.47Z"/><path class="cls-1" d="M124.71,108.44H121V93.81l-13.74-12-4.87,2.36-7.94-8.42A21.29,21.29,0,0,0,87,70.67,26.55,26.55,0,0,0,92.12,55V48.58H104V33.7A29.81,29.81,0,0,0,76.24,4a6.39,6.39,0,0,0-5.92-4H56.66A29.8,29.8,0,0,0,26.89,29.76V48.58H38.43v5.59A28.1,28.1,0,0,0,43.68,70.6a21.16,21.16,0,0,0-7.62,5.16l-7.94,8.42-4.87-2.36-13.74,12v14.63H5.84A5.84,5.84,0,0,0,0,114.26v14.18a5.85,5.85,0,0,0,5.84,5.84H9.51v21.85l28.86,6.43a51.79,51.79,0,0,1,17.7,7.59,9.31,9.31,0,0,0,18.41,0,51.79,51.79,0,0,1,17.7-7.59L121,156.13V134.28h3.67a5.85,5.85,0,0,0,5.84-5.84V114.26A5.84,5.84,0,0,0,124.71,108.44ZM31.82,43.64V29.76A24.85,24.85,0,0,1,56.66,4.94H70.32a1.45,1.45,0,0,1,1.45,1.45V8.86h2.47A24.84,24.84,0,0,1,99.08,33.7v9.94h-7V31.13l-9.39-10.3a2,2,0,0,0-3.51,1.36v1.17A20.28,20.28,0,0,1,58.93,43.64ZM43.37,54.17V48.58H58.93A25.25,25.25,0,0,0,83.51,29l3.67,4V55a21.75,21.75,0,0,1-5.32,14.27A21.35,21.35,0,0,1,76.12,74a21.89,21.89,0,0,1-12.31,2.84A21,21,0,0,1,54.56,74a22,22,0,0,1-5.69-4.77A23.2,23.2,0,0,1,43.37,54.17Zm-3.72,25a16.34,16.34,0,0,1,7.53-4.54,26.2,26.2,0,0,0,16.31,7.16c.6,0,1.2.07,1.78.07a26.7,26.7,0,0,0,18.24-7.19,16.41,16.41,0,0,1,7.39,4.5l6.87,7.29L65.28,102.2,32.78,86.44ZM5.84,129.34a.91.91,0,0,1-.9-.9V114.26a.9.9,0,0,1,.9-.89h8.28a1.72,1.72,0,0,1,.32,0,8,8,0,0,1,0,15.93,1.72,1.72,0,0,1-.32,0ZM56,164.25a57.23,57.23,0,0,0-16.51-6.51l-25-5.58V134.28a12.92,12.92,0,0,0,0-25.84V100l23.93,5.34A51.7,51.7,0,0,1,56,112.83Zm13.71,4.47a4.39,4.39,0,0,1-8.78,0V114h8.78Zm1.72-59.67H59.17a56.25,56.25,0,0,0-19.73-8.56L15.55,95.15l8.74-7.33,39.87,19.33h2.23l39.86-19.33L115,95.15,91.1,100.49A56.28,56.28,0,0,0,71.38,109.05Zm44.72,43.11-25,5.58a57.06,57.06,0,0,0-16.5,6.51V112.83a51.7,51.7,0,0,1,17.58-7.52L116.1,100v8.47a12.92,12.92,0,0,0,0,25.84Zm9.51-23.72a.91.91,0,0,1-.9.9h-8.29a1.72,1.72,0,0,1-.32,0,8,8,0,0,1,0-15.93,1.72,1.72,0,0,1,.32,0h8.29a.9.9,0,0,1,.9.89Z"/><path class="cls-2" d="M60.88,114h8.78v51.25l0,4.09s-.7,3.77-4.34,3.77A4.42,4.42,0,0,1,61,169.49Z"/></g></g></svg>