<svg xmlns="http://www.w3.org/2000/svg" viewBox="0 0 179.31 180.86"><defs><style>.cls-1{fill:#565251;}.cls-2{fill:#64b551;}</style></defs><g id="Camada_2" data-name="Camada 2"><g id="Layer_1" data-name="Layer 1"><path class="cls-1" d="M175,156.08v-23H112.62a25.48,25.48,0,0,0-23,14.51,25.48,25.48,0,0,0-23-14.51H4.35v23H0v16.11H79.55a10.23,10.23,0,0,0,20.22,0h79.54V156.08Zm-62.34-18H170v6.55H112.77v4.93H170v6.55H92.28A20.51,20.51,0,0,1,112.62,138.05ZM9.28,149.53H66.54V144.6H9.28v-6.55H66.7a20.52,20.52,0,0,1,20.34,18H9.28Zm165.09,17.72H94.94v3.39a5.29,5.29,0,1,1-10.58,0v-3.39H4.94V161H174.37Z"/><path class="cls-2" d="M142,27.74a32.37,32.37,0,0,0-18.76,6,62.81,62.81,0,1,0-65.4,91.17v3.56h4.93V88.33L33.54,59.09l4.89-4.88L67.58,83.35,96.72,54.21l4.89,4.88L72.38,88.33v40.11h4.94v-3.56a62.76,62.76,0,0,0,37.19-20.36,32.47,32.47,0,0,0,24.7,15c0,3.77-.05,6.29-.1,6.82l4.92.53c.06-.59.1-3.34.11-7.29a32.58,32.58,0,0,0,30.42-32.47V60.29A32.59,32.59,0,0,0,142,27.74ZM112,99.83a58,58,0,0,1-34.72,20V90.36l31.27-31.27L96.72,47.23,67.58,76.37,38.43,47.23,26.57,59.09,57.84,90.36v29.52a57.88,57.88,0,1,1,61.5-82.94,32.42,32.42,0,0,0-9.9,23.35V87.11A32.14,32.14,0,0,0,112,99.83Zm57.58-12.72a27.63,27.63,0,0,1-25.47,27.51c0-5.74,0-12.74,0-19.32l15.53-12.4L156.57,79,144.1,89c0-7.31,0-13.22-.06-14.89l-4.94,0c.08,12.57.14,29.32.13,40.43a27.61,27.61,0,0,1-23.66-19.44,27.26,27.26,0,0,1-1.19-8V60.29a27.5,27.5,0,0,1,7.13-18.49,27.87,27.87,0,0,1,3.88-3.56,27.61,27.61,0,0,1,44.23,22Z"/></g></g></svg>