<?xml version="1.0" encoding="UTF-8"?><svg id="Camada_2" xmlns="http://www.w3.org/2000/svg" xmlns:xlink="http://www.w3.org/1999/xlink" viewBox="0 0 48 48"><defs><style>.cls-1{fill:url(#Gradiente_sem_nome_17-3);}.cls-2{fill:url(#Gradiente_sem_nome_17-7);}.cls-3{fill:url(#Gradiente_sem_nome_17-2);}.cls-4{fill:url(#Gradiente_sem_nome_17-6);}.cls-5{fill:url(#Gradiente_sem_nome_17-5);}.cls-6{fill:url(#Gradiente_sem_nome_17);}.cls-7{fill:none;}.cls-8{fill:url(#Gradiente_sem_nome_17-4);}</style><linearGradient id="Gradiente_sem_nome_17" x1="9.07" y1="21.46" x2="38.2" y2="21.46" gradientTransform="matrix(1, 0, 0, 1, 0, 0)" gradientUnits="userSpaceOnUse"><stop offset="0" stop-color="#59bbaa"/><stop offset="1" stop-color="#63b450"/></linearGradient><linearGradient id="Gradiente_sem_nome_17-2" x1="11" y1="25.9" x2="35.37" y2="25.9" xlink:href="#Gradiente_sem_nome_17"/><linearGradient id="Gradiente_sem_nome_17-3" x1="13.91" y1="29.5" x2="24.59" y2="29.5" xlink:href="#Gradiente_sem_nome_17"/><linearGradient id="Gradiente_sem_nome_17-4" x1="16.95" y1="34.32" x2="32.61" y2="34.32" xlink:href="#Gradiente_sem_nome_17"/><linearGradient id="Gradiente_sem_nome_17-5" x1="19.58" y1="38.21" x2="29.91" y2="38.21" xlink:href="#Gradiente_sem_nome_17"/><linearGradient id="Gradiente_sem_nome_17-6" x1="22.9" y1="41.55" x2="27.53" y2="41.55" xlink:href="#Gradiente_sem_nome_17"/><linearGradient id="Gradiente_sem_nome_17-7" x1="8.18" y1="14.96" x2="39.82" y2="14.96" xlink:href="#Gradiente_sem_nome_17"/></defs><g id="Layer_1"><g><path class="cls-6" d="M36.67,29.88c-1.16,0-2.2-.21-3.11-.62-.99-.45-1.82-1.11-2.54-2.05-1.27-1.63-1.96-3.76-2.63-5.82-.9-2.77-1.75-5.38-3.79-6.15-1.51-.57-3.05-.3-4.22,.72-1.19,1.04-1.78,2.45-2.35,4.39-.47,1.61-1.09,3.46-2.49,5-1.33,1.46-3.37,2.42-5.44,2.56-.52,.04-.98-.36-1.01-.88-.04-.52,.36-.98,.88-1.01,1.58-.11,3.17-.85,4.17-1.94,1.02-1.12,1.55-2.46,2.08-4.25,.52-1.78,1.22-3.81,2.93-5.29,.84-.73,1.85-1.21,2.91-1.39,1.06-.18,2.17-.07,3.22,.33,2.9,1.09,3.94,4.27,4.93,7.34,.62,1.91,1.26,3.88,2.32,5.24,1.12,1.44,2.6,2.05,4.68,1.92,.52-.03,.97,.36,1.01,.89,.03,.52-.36,.97-.89,1.01-.22,.01-.43,.02-.64,.02Z"/><path class="cls-3" d="M34.42,33.85c-.1,0-.19-.01-.29-.05-1.19-.38-2.28-.87-3.25-1.46-1.08-.66-2.02-1.44-2.78-2.33-1.17-1.36-1.92-3.08-2.24-5.11-.07-.41-.11-.81-.15-1.2-.11-1.07-.21-1.99-.72-2.83-.4-.66-1.05-1.06-1.66-1.01-.43,.04-.77,.31-.98,.79-1.26,5.29-5.01,9.64-10.06,11.66-.49,.2-1.04-.04-1.23-.53-.2-.49,.04-1.04,.53-1.23,4.5-1.8,7.83-5.69,8.93-10.41l.02-.07,.03-.07c.48-1.2,1.43-1.94,2.61-2.04,.65-.05,1.32,.1,1.93,.44,.61,.34,1.13,.85,1.51,1.48,.73,1.2,.86,2.43,.99,3.61,.04,.36,.08,.74,.14,1.1,.27,1.67,.87,3.08,1.81,4.17,1.22,1.43,2.96,2.51,5.16,3.22,.5,.16,.77,.7,.61,1.19-.13,.4-.5,.66-.9,.66Z"/><path class="cls-1" d="M14.86,35.47c-.38,0-.73-.23-.88-.6-.2-.49,.04-1.04,.53-1.24,3.22-1.29,7.06-4.42,8.2-9.36,.12-.51,.63-.83,1.14-.71,.51,.12,.83,.63,.71,1.14-.57,2.48-1.84,4.82-3.65,6.76-1.61,1.72-3.58,3.08-5.7,3.93-.12,.05-.24,.07-.35,.07Z"/><path class="cls-8" d="M17.9,38.13c-.37,0-.73-.22-.88-.59-.2-.49,.04-1.04,.52-1.24,3.3-1.34,5.61-4.28,5.86-4.61,.27-.35,.72-.94,1.48-1.12,.39-.09,.99-.1,1.67,.35,.39,.26,.71,.61,.95,.89,.05,.06,.1,.12,.16,.18,.92,1.07,2.06,2.41,4.23,2.93,.51,.12,.82,.64,.7,1.15-.12,.51-.64,.82-1.15,.7-2.76-.67-4.24-2.4-5.22-3.55-.05-.06-.1-.12-.15-.18-.53-.62-.72-.63-.74-.63-.07,.02-.2,.16-.4,.43-.46,.61-2.97,3.72-6.66,5.22-.12,.05-.24,.07-.36,.07Z"/><path class="cls-5" d="M20.53,41c-.26,0-.52-.11-.71-.32-.35-.39-.31-.99,.08-1.34,1.3-1.15,2.68-2.24,4.1-3.23,.38-.27,1.09-.76,1.96-.67,.73,.07,1.26,.52,1.61,.82l2,1.7c.4,.34,.45,.94,.11,1.34s-.94,.45-1.34,.11l-2-1.7c-.16-.14-.43-.37-.57-.38-.17-.02-.54,.24-.68,.34-1.36,.95-2.69,1.99-3.93,3.09-.18,.16-.41,.24-.63,.24Z"/><path class="cls-4" d="M23.85,43.96c-.15,0-.29-.03-.43-.11-.47-.24-.65-.81-.41-1.28,.63-1.21,1.65-2.31,3.05-3.26,.43-.29,1.02-.18,1.32,.25,.29,.43,.18,1.02-.25,1.32-1.13,.77-1.95,1.63-2.42,2.56-.17,.33-.5,.52-.85,.52Z"/><path class="cls-2" d="M36.85,25.87c-.54,0-1.05-.07-1.52-.21-.9-.27-1.69-.8-2.32-1.59-1.09-1.35-1.65-3.27-2.24-5.31-.99-3.41-2.01-6.94-5.6-8.17-4.37-1.5-7.99,2.12-9.76,5.68-.47,.94-.85,1.9-1.22,2.82-.47,1.18-.88,2.19-1.38,2.96-.7,1.08-1.54,1.55-2.52,1.42-.61-.08-1.17-.43-1.56-.97-.35-.48-.54-1.07-.54-1.66,0-2.97,1.28-6.43,3.51-9.5,1.1-1.51,2.35-2.84,3.74-3.96,1.47-1.19,3.01-2.08,4.58-2.64,2.19-.78,4.32-.9,6.36-.35,2.24,.6,4.28,2.01,6.05,4.17,1.26,1.54,2.24,3.7,2.84,5.24,.65,1.67,1.21,3.53,1.5,4.98,.16,.8,.61,1.08,.81,1.05,.19-.03,.42-.46,.32-1.31v-.05c0-.05-.36-5.54-3.37-8.83-.35-.39-.33-.99,.06-1.34,.39-.35,.99-.33,1.34,.06,1.47,1.61,2.57,3.78,3.26,6.46,.48,1.85,.59,3.3,.6,3.52,.22,2.09-.8,3.2-1.92,3.37-.66,.1-1.35-.11-1.9-.6-.53-.47-.9-1.14-1.07-1.95-.47-2.35-1.96-6.97-3.94-9.39-3.62-4.42-7.6-4.19-10.3-3.23-2.68,.96-5.39,3.12-7.43,5.92-2,2.75-3.15,5.81-3.15,8.38,0,.39,.25,.73,.46,.76,.56,.08,1.29-1.74,1.88-3.21,.37-.91,.78-1.94,1.28-2.95,.65-1.3,2.09-3.74,4.49-5.43,2.37-1.67,4.99-2.09,7.58-1.2,2.04,.7,3.59,2.02,4.76,4.03,.97,1.69,1.52,3.58,2.05,5.41,.53,1.84,1.04,3.59,1.89,4.64,.57,.7,1.51,1.44,3.78,.91,.51-.12,1.02,.2,1.14,.71,.12,.51-.2,1.02-.71,1.14-.66,.15-1.27,.23-1.84,.23Z"/></g><rect class="cls-7" width="48" height="48"/></g></svg>