<svg xmlns="http://www.w3.org/2000/svg" viewBox="0 0 176.21 132.46"><defs><style>.cls-1{fill:#3c3c3b;}.cls-2{fill:#64b551;}</style></defs><g id="Camada_2" data-name="Camada 2"><g id="Layer_1" data-name="Layer 1"><path class="cls-1" d="M124.23,14.31a29.35,29.35,0,0,0-3.77.24H128A29.2,29.2,0,0,0,124.23,14.31Z"/><path class="cls-1" d="M165,9.62V0h-57.9A21.35,21.35,0,0,0,93.45,4.94a20.7,20.7,0,0,0-2.88,2.89,16.94,16.94,0,0,0-1.33,1.79,17.8,17.8,0,0,0-1.13,1.89A17.8,17.8,0,0,0,87,9.62a18.4,18.4,0,0,0-1.34-1.81,22.23,22.23,0,0,0-2.87-2.87A21.37,21.37,0,0,0,69.08,0H11.17V9.62H0V124.4H76.62a10.56,10.56,0,0,0,10.25,8.06h2.48A10.57,10.57,0,0,0,99.6,124.4h47.6l.33.91,1.94-.91h26.74V9.62ZM90.57,19a17.26,17.26,0,0,1,1.53-4.49,16.81,16.81,0,0,1,3.52-4.93,16.52,16.52,0,0,1,11.52-4.68h53V85.23H149.84l-7.41-18A29.54,29.54,0,0,0,146.09,24,29.84,29.84,0,0,0,128,14.55h-7.53A29.93,29.93,0,0,0,102.36,24a29.59,29.59,0,0,0,21.87,49.54,30.18,30.18,0,0,0,4.16-.29l4.42,12H107.14A21.47,21.47,0,0,0,90.57,93ZM160.1,90.17v6.6h-5.51l-2.71-6.6ZM136.78,62.22a21.91,21.91,0,0,1-8.05,3.44h0a22,22,0,0,1-4.47.45,22.24,22.24,0,1,1,12.55-3.9Zm2.07,39.49,1.51,4.1H90.6a16.57,16.57,0,0,1,16.54-15.64h27.48l2.43,6.6H111.59v4.94ZM94.94,119.46v2.47a5.59,5.59,0,0,1-5.59,5.59H86.87a5.6,5.6,0,0,1-5.6-5.59v-2.47H4.94V14.55h6.23V85.23h4.94V4.94h53a16.67,16.67,0,0,1,15,9.61,16.94,16.94,0,0,1,1.52,4.5V93a21.46,21.46,0,0,0-16.56-7.8h-53v4.94h53a16.55,16.55,0,0,1,16.53,15.64H16.11v.91H11.17v4h131l3.21,8.71Zm55.37-.92-2.86-7.79-1.82-4.94-1.5-4.1-1.82-4.94-2.42-6.6-1.81-4.94-4.83-13.12a29.07,29.07,0,0,0,5-2.14l6.27,15.26,2,4.94,2.72,6.6,2,4.94,1.7,4.1,2,4.94,1.93,4.67Zm6.31-16.83h3.48v4.1h-1.79Zm14.65,17.75H159.93l3.34-1.58-2.94-7.13H165V14.55h6.23Z"/><path class="cls-1" d="M11.17,85.23v21.49h4.94V85.23Z"/><rect class="cls-1" x="11.17" y="85.23" width="4.94" height="21.49"/><rect class="cls-1" x="13.65" y="96.77" width="50.99" height="4.94"/><rect class="cls-2" x="24.25" y="70.2" width="47.13" height="4.94"/><rect class="cls-2" x="24.25" y="57.79" width="47.13" height="4.94"/><rect class="cls-2" x="24.25" y="45.38" width="47.13" height="4.94"/><rect class="cls-2" x="24.25" y="32.97" width="47.13" height="4.94"/><rect class="cls-2" x="24.25" y="20.56" width="47.13" height="4.94"/><path class="cls-1" d="M124.23,14.31a29.35,29.35,0,0,0-3.77.24H128A29.2,29.2,0,0,0,124.23,14.31Z"/><path class="cls-1" d="M141.62,20a29.59,29.59,0,1,0-17.39,53.53,29.15,29.15,0,0,0,6-.6l0,0A29.07,29.07,0,0,0,141,68.31,29.55,29.55,0,0,0,141.62,20ZM136.1,61.51a21.16,21.16,0,0,1-7.73,3.3h0a21,21,0,0,1-4.29.44,21.35,21.35,0,0,1,0-42.7,21.41,21.41,0,0,1,21.35,21.35A21.34,21.34,0,0,1,136.1,61.51Z"/></g></g></svg>