<svg xmlns="http://www.w3.org/2000/svg" viewBox="0 0 118.31 178.78"><defs><style>.cls-1{fill:#565251;}.cls-2{fill:#64b551;}</style></defs><g id="Camada_2" data-name="Camada 2"><g id="Layer_1" data-name="Layer 1"><path class="cls-1" d="M93.06,21.31V15.89h-20V0H45.26V15.89h-20v5.42H0V178.78H118.31V21.31ZM30.2,20.83h20V4.94H68.12V20.83h20V36.12H30.2ZM98.49,41.15V158.94H19.83V41.15Zm14.89,132.69H4.94V26.25H25.26v10H14.89V163.88h88.54V36.21H93.06v-10h20.32Z"/><rect class="cls-2" x="31" y="54.13" width="56.31" height="4.94"/><rect class="cls-2" x="31" y="71.51" width="56.31" height="4.94"/><rect class="cls-2" x="31" y="88.89" width="56.31" height="4.94"/><rect class="cls-2" x="31" y="106.26" width="56.31" height="4.94"/><rect class="cls-2" x="31" y="123.64" width="56.31" height="4.94"/><rect class="cls-2" x="31" y="141.01" width="56.31" height="4.94"/><rect class="cls-1" x="55.68" y="12.42" width="6.96" height="4.94"/></g></g></svg>