<svg xmlns="http://www.w3.org/2000/svg" viewBox="0 0 140.39 177.48"><defs><style>.cls-1{fill:#515451;}.cls-2{fill:#64b551;}</style></defs><g id="Camada_2" data-name="Camada 2"><g id="Layer_1" data-name="Layer 1"><path class="cls-1" d="M4.94,164.45v2.46h.38A8,8,0,0,1,4.94,164.45Zm0-2.47v2.47A8,8,0,0,1,5.32,162Zm130.51,0v4.93h2.47V162Z"/><path class="cls-1" d="M4.94,164.45v2.46h.38A8,8,0,0,1,4.94,164.45Zm0-2.47v2.47A8,8,0,0,1,5.32,162Z"/><path class="cls-1" d="M135.45,162v4.93h2.47V162Z"/><path class="cls-1" d="M13,0A13,13,0,0,0,.25,10.57,12.62,12.62,0,0,0,0,13V164.45a12.52,12.52,0,0,0,.25,2.46A13,13,0,0,0,13,177.48H140.39V0Zm8.38,4.94h114V151.41h-114ZM4.94,13a8,8,0,0,1,.38-2.47A8.12,8.12,0,0,1,13,4.94h3.44V151.41H13a12.89,12.89,0,0,0-8.1,2.84Zm133,153.87h-2.47v5.63H13a8.12,8.12,0,0,1-7.72-5.63H4.94V162h.38A8.12,8.12,0,0,1,13,156.35H135.45V162h2.47Z"/><rect class="cls-2" x="59.19" y="86.27" width="39.1" height="4.94"/><rect class="cls-2" x="46.7" y="98.77" width="64.08" height="4.94"/><rect class="cls-2" x="46.7" y="112.09" width="64.08" height="4.94"/><rect class="cls-1" x="18.95" y="161.98" width="116.5" height="4.94"/><rect class="cls-1" x="135.45" y="161.98" width="2.47" height="4.94"/><polygon class="cls-2" points="92.75 39.58 87.96 44.52 84.1 39.24 90.4 36.37 92.75 39.58"/><polygon class="cls-2" points="84.11 36.75 80.61 36.81 81.12 33.52 84.42 34.75 84.11 36.75"/><polygon class="cls-2" points="81.01 42.42 79.13 39.46 82.2 38.18 82.87 41.64 81.01 42.42"/><polygon class="cls-2" points="86.24 47.04 81.46 51.99 77.59 46.71 83.9 43.84 86.24 47.04"/><polygon class="cls-2" points="77.61 44.22 74.11 44.28 74.62 40.99 77.92 42.22 77.61 44.22"/><polygon class="cls-2" points="69.12 57.13 67.25 54.18 75.7 45.65 76.37 49.11 69.12 57.13"/><polygon class="cls-2" points="94.14 57.41 88.14 54.05 92.26 48.96 96.65 54.32 94.14 57.41"/><polygon class="cls-2" points="94.67 48.34 93.72 44.97 97.03 44.62 96.69 48.13 94.67 48.34"/><polygon class="cls-2" points="88.4 46.78 90.78 44.21 92.8 46.86 89.63 48.39 88.4 46.78"/><path class="cls-2" d="M70.64,74.66h40.67s-1.56-8.85-9.21-8.48a14.42,14.42,0,0,1-4.19-.37A14.61,14.61,0,0,1,88,58C83.53,48.45,47,74.66,47,74.66"/></g></g></svg>