<svg xmlns="http://www.w3.org/2000/svg" viewBox="0 0 176.21 135.16"><defs><style>.cls-1{fill:#565251;}.cls-2{fill:#64b551;}</style></defs><g id="Camada_2" data-name="Camada 2"><g id="Layer_1" data-name="Layer 1"><path class="cls-1" d="M165,12.33V2.7h-57.9a21.64,21.64,0,0,0-16.57,7.82,19.67,19.67,0,0,0-1.34,1.81,21.16,21.16,0,0,0-1.12,1.88A21.16,21.16,0,0,0,87,12.33a19.78,19.78,0,0,0-1.35-1.81,21.77,21.77,0,0,0-2.88-2.88A21.41,21.41,0,0,0,69.08,2.7H61.45V7.64h7.63A16.48,16.48,0,0,1,80.6,12.33a16.77,16.77,0,0,1,3.51,4.94,17.24,17.24,0,0,1,1.53,4.47v74a21.46,21.46,0,0,0-16.56-7.8h-53V7.64h10.6V2.7H11.17v9.63H0V127.1H76.62a10.56,10.56,0,0,0,10.25,8.06h2.48A10.58,10.58,0,0,0,99.6,127.1h76.61V12.33ZM90.57,21.74a17.24,17.24,0,0,1,1.53-4.47,16.77,16.77,0,0,1,3.51-4.94,16.49,16.49,0,0,1,11.53-4.69h53V87.93h-53a21.48,21.48,0,0,0-16.57,7.8Zm69.53,82.67v4.1H90.6a16.59,16.59,0,0,1,16.54-15.64h53v6.6H111.59v4.94Zm-144,0H64.63V99.47H16.11v-6.6h53a16.58,16.58,0,0,1,16.53,15.64H16.11Zm155.16,17.75H94.94v2.47a5.6,5.6,0,0,1-5.59,5.6H86.87a5.6,5.6,0,0,1-5.6-5.6v-2.47H4.94V17.27h6.23v96.18H165V17.27h6.23Z"/><rect class="cls-1" x="104.83" y="72.91" width="47.13" height="4.94"/><rect class="cls-1" x="104.83" y="60.5" width="47.13" height="4.94"/><rect class="cls-1" x="104.83" y="48.08" width="47.13" height="4.94"/><rect class="cls-1" x="104.83" y="35.68" width="47.13" height="4.94"/><rect class="cls-1" x="104.83" y="23.27" width="47.13" height="4.94"/><polygon class="cls-2" points="56.52 58.07 56.52 0 31.65 0 31.65 58.07 44.08 48.69 56.52 58.07"/></g></g></svg>