<svg xmlns="http://www.w3.org/2000/svg" viewBox="0 0 115.89 153.97"><defs><style>.cls-1{fill:#343434;}.cls-2{fill:#64b551;stroke:#65b552;stroke-miterlimit:10;}</style></defs><g id="Camada_2" data-name="Camada 2"><g id="Layer_1" data-name="Layer 1"><path class="cls-1" d="M12.8,154h90.28a12.82,12.82,0,0,0,12.81-12.8V36.45a12.82,12.82,0,0,0-12.81-12.8H85v-4a8.38,8.38,0,0,0-8.36-8.37H71.56a13.74,13.74,0,0,0-27,0h-5.9a8.38,8.38,0,0,0-8.37,8.37v4H12.8A12.81,12.81,0,0,0,0,36.45V141.17A12.81,12.81,0,0,0,12.8,154ZM58,4.93a8.83,8.83,0,0,1,8.46,6.34H49.59A8.82,8.82,0,0,1,58,4.93ZM35.19,23.65v-4a3.44,3.44,0,0,1,3.44-3.43h38a3.44,3.44,0,0,1,3.43,3.43v14.9A3.44,3.44,0,0,1,76.67,38h-38a3.44,3.44,0,0,1-3.44-3.43ZM4.93,36.45a7.88,7.88,0,0,1,7.87-7.87H30.26v6a8.38,8.38,0,0,0,8.37,8.37h38A8.38,8.38,0,0,0,85,34.54v-6h18A7.88,7.88,0,0,1,111,36.45V141.17a7.88,7.88,0,0,1-7.87,7.87H12.8a7.88,7.88,0,0,1-7.87-7.87Z"/><rect class="cls-1" x="4.93" y="123.96" width="106.02" height="5.36"/><path class="cls-2" d="M90.06,60.64a24.94,24.94,0,0,0-2.15-4.9,1,1,0,0,0-1-.41,24.43,24.43,0,0,0-5,1.87c-3.55,1.77-6,4.14-7.17,6.84a13.24,13.24,0,0,0-.42,8,25.59,25.59,0,0,0-4.82-4.19,37.86,37.86,0,0,0-4.18-6.42.91.91,0,0,0-1.41,1.14,36.77,36.77,0,0,1,3.34,4.9L59,65.92,51.2,55.25a13.56,13.56,0,0,1,2.28.23,15.61,15.61,0,0,1,7.06,3.64.9.9,0,0,0,1.18-1.37,17.38,17.38,0,0,0-7.89-4c-4.14-.81-9,.25-14,3.08a36.25,36.25,0,0,0-6.32,4.51,1,1,0,0,0-.11,1.24,37.31,37.31,0,0,0,4.06,6.37,28.81,28.81,0,0,0,4.27,4.39q-.63.53-1.23,1.11a20.89,20.89,0,0,0,6.76,34.29A.9.9,0,0,0,48,107a19.54,19.54,0,0,1-3.91-2.15,10.12,10.12,0,0,0-1.53-7.13c-.29-.45.57-2.2,1.08-3.25a17.18,17.18,0,0,0,1.33-3.24,2.48,2.48,0,0,0-.88-2.71,6.67,6.67,0,0,0-2.15-1,4.68,4.68,0,0,1-1.18-.47,11.71,11.71,0,0,1-1.53-2.49,15.76,15.76,0,0,0-1.65-2.71,19.27,19.27,0,0,1,5.7-7.52,15.7,15.7,0,0,0,7.62,2.83c-3.2,2.48-4.23,5.64-2.75,8.67,1.72,3.55,5.27,3,8.4,2.48l1.64-.24c.21,0,.27,0,.31.07.68.61.66,3.52.65,5.65,0,2.94,0,5.72,1.05,7.15a2.79,2.79,0,0,0,2.27,1.1,4.57,4.57,0,0,0,1.79-.41c2.72-1.17,5.56-4.68,5.13-7.46-.38-2.43-.63-4,0-5.33s1.86-2.31,4.45-3.72A19.12,19.12,0,0,1,68.49,103,19.19,19.19,0,0,1,53,108.3a.91.91,0,0,0-.19,1.8,21,21,0,0,0,16.91-5.83,20.88,20.88,0,0,0-3.21-32.43c1.19-.85,2.08-1.59,2.57-2A24,24,0,1,1,31.47,85.43a.9.9,0,0,0-1.78-.3,25.8,25.8,0,0,0,21.25,29.66,26.61,26.61,0,0,0,4.26.35A25.82,25.82,0,0,0,78.81,79,26.05,26.05,0,0,0,83,77.4c3.55-1.77,6-4.14,7.18-6.85s1.11-6.13-.09-9.91ZM37.6,85.49a11.23,11.23,0,0,0,2,3,5.18,5.18,0,0,0,1.81.8c1.76.55,2,.81,1.8,1.51A16.18,16.18,0,0,1,42,93.71c-.94,1.91-1.82,3.71-1,5a8.56,8.56,0,0,1,1.36,4.8A19.25,19.25,0,0,1,36.81,84c.26.45.54,1,.79,1.46ZM81.33,67.73,78.76,61.5a17,17,0,0,1,3.93-2.67,26.41,26.41,0,0,1,2.86-1.2Zm5.89-9.4a25.05,25.05,0,0,1,1.13,2.89,17.7,17.7,0,0,1,.82,4.36l-6,2.48ZM76.41,64.75a8.74,8.74,0,0,1,1-1.76l2.92,7.09-2.62,6.27a24.25,24.25,0,0,1-1.17-3c-.74-2.34-1.36-5.73-.14-8.63Zm5.79,11a25.64,25.64,0,0,1-2.77,1.17l2.73-6.51,6.93-2.86a8.47,8.47,0,0,1-.61,2.28c-1.22,2.9-4.09,4.82-6.28,5.92Zm-32.59-.52c-.32-.06-.63-.14-.94-.23l10-7.33L66.9,69.3c-3,2.36-10.3,7.32-17.29,6ZM40.47,69.6a35.62,35.62,0,0,1-4.61-6.35l10.48,2Zm1.85-12.06,4.39,6L36.16,61.46a35.21,35.21,0,0,1,6.16-3.92Zm7,6.49L44,56.78a20.19,20.19,0,0,1,5.06-1.4l7.35,10Zm-.56,1.73,7.49,1.46-9.62,7a18.55,18.55,0,0,1-4.87-3.38ZM73.28,83.41c-3.26,1.74-4.85,3.1-5.61,4.76s-.51,3.71-.1,6.36c.24,1.56-1.62,4.48-4,5.52-.9.39-1.55.34-1.91-.14-.72-.93-.7-3.76-.69-6,0-3.15,0-5.86-1.25-7a2.13,2.13,0,0,0-1.73-.5c-.57.07-1.14.16-1.7.25-3.32.53-5.41.74-6.5-1.49-1.75-3.6,1.8-6.28,3.41-7.26a5.59,5.59,0,0,0,.91-.69A26.4,26.4,0,0,0,64.9,72.94a19.2,19.2,0,0,1,8.38,10.47Z"/></g></g></svg>