<?xml version="1.0" encoding="UTF-8"?>
<svg id="Camada_2" data-name="Camada 2" xmlns="http://www.w3.org/2000/svg" xmlns:xlink="http://www.w3.org/1999/xlink" viewBox="0 0 160.14 156.7">
  <defs>
    <style>
      .cls-1 {
        fill: url(#Gradiente_sem_nome_9-4);
      }

      .cls-2 {
        fill: url(#Gradiente_sem_nome_9-12);
      }

      .cls-3 {
        fill: url(#Gradiente_sem_nome_9);
      }

      .cls-4 {
        fill: url(#Gradiente_sem_nome_9-13);
      }

      .cls-5 {
        fill: url(#Gradiente_sem_nome_9-11);
      }

      .cls-6 {
        fill: url(#Gradiente_sem_nome_9-2);
      }

      .cls-7 {
        fill: url(#Gradiente_sem_nome_9-14);
      }

      .cls-8 {
        fill: url(#Gradiente_sem_nome_9-10);
      }

      .cls-9 {
        fill: url(#Gradiente_sem_nome_9-8);
      }

      .cls-10 {
        fill: url(#Gradiente_sem_nome_9-7);
      }

      .cls-11 {
        fill: url(#Gradiente_sem_nome_9-9);
      }

      .cls-12 {
        fill: url(#Gradiente_sem_nome_9-5);
      }

      .cls-13 {
        fill: url(#Gradiente_sem_nome_9-3);
      }

      .cls-14 {
        fill: url(#Gradiente_sem_nome_9-6);
      }
    </style>
    <linearGradient id="Gradiente_sem_nome_9" data-name="Gradiente sem nome 9" x1="0" y1="146.49" x2="130.01" y2="146.49" gradientUnits="userSpaceOnUse">
      <stop offset="0" stop-color="#59bbaa"/>
      <stop offset="1" stop-color="#63b450"/>
    </linearGradient>
    <linearGradient id="Gradiente_sem_nome_9-2" data-name="Gradiente sem nome 9" x1="24.41" y1="119.09" x2="47.03" y2="119.09" xlink:href="#Gradiente_sem_nome_9"/>
    <linearGradient id="Gradiente_sem_nome_9-3" data-name="Gradiente sem nome 9" x1="53.7" y1="119.09" x2="76.32" y2="119.09" xlink:href="#Gradiente_sem_nome_9"/>
    <linearGradient id="Gradiente_sem_nome_9-4" data-name="Gradiente sem nome 9" x1="82.99" y1="119.09" x2="105.6" y2="119.09" xlink:href="#Gradiente_sem_nome_9"/>
    <linearGradient id="Gradiente_sem_nome_9-5" data-name="Gradiente sem nome 9" x1="57.56" y1="6.92" x2="72.52" y2="6.92" xlink:href="#Gradiente_sem_nome_9"/>
    <linearGradient id="Gradiente_sem_nome_9-6" data-name="Gradiente sem nome 9" x1="57.56" y1="23.77" x2="72.52" y2="23.77" xlink:href="#Gradiente_sem_nome_9"/>
    <linearGradient id="Gradiente_sem_nome_9-7" data-name="Gradiente sem nome 9" x1="50.65" y1="40.16" x2="79.36" y2="40.16" xlink:href="#Gradiente_sem_nome_9"/>
    <linearGradient id="Gradiente_sem_nome_9-8" data-name="Gradiente sem nome 9" x1="89.4" y1="77.58" x2="160.13" y2="77.58" xlink:href="#Gradiente_sem_nome_9"/>
    <linearGradient id="Gradiente_sem_nome_9-9" data-name="Gradiente sem nome 9" x1="107" y1="88.53" x2="160.14" y2="88.53" xlink:href="#Gradiente_sem_nome_9"/>
    <linearGradient id="Gradiente_sem_nome_9-10" data-name="Gradiente sem nome 9" x1="101.08" y1="60.92" x2="126.19" y2="60.92" xlink:href="#Gradiente_sem_nome_9"/>
    <linearGradient id="Gradiente_sem_nome_9-11" data-name="Gradiente sem nome 9" x1="95.7" y1="74.7" x2="159.99" y2="74.7" xlink:href="#Gradiente_sem_nome_9"/>
    <linearGradient id="Gradiente_sem_nome_9-12" data-name="Gradiente sem nome 9" x1="23.49" y1="64.29" x2="94.31" y2="64.29" xlink:href="#Gradiente_sem_nome_9"/>
    <linearGradient id="Gradiente_sem_nome_9-13" data-name="Gradiente sem nome 9" x1="15.66" y1="111.26" x2="114.36" y2="111.26" xlink:href="#Gradiente_sem_nome_9"/>
    <linearGradient id="Gradiente_sem_nome_9-14" data-name="Gradiente sem nome 9" x1="23.49" y1="83.86" x2="95.3" y2="83.86" xlink:href="#Gradiente_sem_nome_9"/>
  </defs>
  <g id="Layer_3" data-name="Layer 3">
    <g>
      <g>
        <g>
          <path class="cls-3" d="m127.64,156.7H2.37c-1.31,0-2.37-1.06-2.37-2.37v-15.66c0-1.31,1.06-2.37,2.37-2.37h125.27c1.31,0,2.37,1.06,2.37,2.37v15.66c0,1.31-1.06,2.37-2.37,2.37Zm-122.89-4.75h120.52v-10.91H4.75v10.91Z"/>
          <path class="cls-6" d="m44.65,141.04h-17.87c-1.31,0-2.37-1.06-2.37-2.37v-31.38c0-5.59,4.55-10.14,10.14-10.14h2.34c5.59,0,10.14,4.55,10.14,10.14v31.38c0,1.31-1.06,2.37-2.37,2.37Zm-15.49-4.75h13.12v-29.01c0-2.97-2.42-5.39-5.39-5.39h-2.34c-2.97,0-5.39,2.42-5.39,5.39v29.01Z"/>
          <path class="cls-13" d="m73.94,141.04h-17.87c-1.31,0-2.37-1.06-2.37-2.37v-31.38c0-5.59,4.55-10.14,10.14-10.14h2.34c5.59,0,10.14,4.55,10.14,10.14v31.38c0,1.31-1.06,2.37-2.37,2.37Zm-15.49-4.75h13.12v-29.01c0-2.97-2.42-5.39-5.39-5.39h-2.34c-2.97,0-5.39,2.42-5.39,5.39v29.01Z"/>
          <path class="cls-1" d="m103.23,141.04h-17.87c-1.31,0-2.37-1.06-2.37-2.37v-31.38c0-5.59,4.55-10.14,10.14-10.14h2.34c5.59,0,10.14,4.55,10.14,10.14v31.38c0,1.31-1.06,2.37-2.37,2.37Zm-15.49-4.75h13.12v-29.01c0-2.97-2.42-5.39-5.39-5.39h-2.34c-2.97,0-5.39,2.42-5.39,5.39v29.01Z"/>
          <path class="cls-12" d="m70.15,13.84h-10.22c-.84,0-1.62-.45-2.05-1.17-.43-.73-.43-1.63-.02-2.36l5.11-9.1c.42-.75,1.21-1.21,2.07-1.21s1.65.46,2.07,1.21l5.11,9.1c.41.74.4,1.63-.02,2.36-.43.73-1.21,1.17-2.05,1.17Zm-6.16-4.75h2.1l-1.05-1.87-1.05,1.87Z"/>
        </g>
        <path class="cls-14" d="m70.15,38.43c-1.31,0-2.37-1.06-2.37-2.37V13.84h-5.47v22.19c0,1.31-1.06,2.37-2.37,2.37s-2.37-1.06-2.37-2.37V11.47c0-1.31,1.06-2.37,2.37-2.37h10.22c1.31,0,2.37,1.06,2.37,2.37v24.59c0,1.31-1.06,2.37-2.37,2.37Z"/>
        <path class="cls-10" d="m76.99,47.78c-1.17,0-2.19-.87-2.35-2.06-.64-4.81-4.77-8.44-9.63-8.44s-8.99,3.63-9.63,8.44c-.17,1.3-1.36,2.23-2.66,2.04-1.3-.17-2.21-1.36-2.04-2.66.95-7.16,7.11-12.57,14.33-12.57s13.39,5.4,14.33,12.56c.17,1.3-.74,2.49-2.04,2.67-.11.01-.21.02-.31.02Z"/>
      </g>
      <g>
        <path class="cls-9" d="m124.77,117.91c-.22,0-.45-.03-.67-.1-14.99-4.4-26.68-14.86-32.07-28.71-2.9-7.46-2.72-15.59-2.54-23.45.04-1.72.08-3.42.08-5.09,0-2.48,0-4.97,0-7.45,0-3.32-.02-6.64,0-9.96,0-1.05.7-1.97,1.71-2.27.51-.15,12.77-3.65,33.5-3.65s33.03,3.51,33.52,3.66c1,.3,1.68,1.22,1.69,2.26.02,3.33.01,6.65,0,9.98,0,2.48-.01,4.96,0,7.43,0,1.67.04,3.37.08,5.09.18,7.86.36,15.98-2.54,23.44-5.39,13.85-17.07,24.31-32.07,28.71-.22.06-.44.1-.67.1Zm-30.47-72.89c0,2.69,0,5.39,0,8.09,0,2.49.01,4.98,0,7.47,0,1.7-.04,3.43-.08,5.18-.17,7.39-.34,15.04,2.22,21.62,4.77,12.26,15.06,21.58,28.31,25.67,13.25-4.09,23.54-13.41,28.31-25.67,2.56-6.58,2.39-14.22,2.22-21.62-.04-1.75-.08-3.49-.08-5.19,0-2.49,0-4.97,0-7.46,0-2.71.01-5.41,0-8.12-3.91-.93-14.5-3.02-30.47-3.02s-26.48,2.11-30.47,3.03Z"/>
        <g>
          <path class="cls-11" d="m124.77,117.91c-.22,0-.45-.03-.67-.1-5.89-1.73-11.32-4.4-16.13-7.96-.64-.48-1-1.24-.96-2.04.04-.8.49-1.52,1.18-1.92,29-16.77,42.77-37.44,47.34-45.54.53-.94,1.61-1.4,2.66-1.13,1.04.27,1.77,1.2,1.78,2.28.01,1.37.04,2.76.08,4.16.17,7.86.36,15.99-2.55,23.45-5.39,13.85-17.07,24.31-32.07,28.71-.22.06-.44.1-.67.1Zm-10.97-9.83c3.38,2.1,7.06,3.77,10.97,4.97,13.25-4.09,23.54-13.41,28.31-25.67,2.13-5.47,2.37-11.67,2.3-17.85-6.81,9.93-19.79,25.24-41.57,38.55Z"/>
          <path class="cls-8" d="m109.6,70.4h0c-.63,0-1.23-.25-1.68-.7l-6.15-6.15c-.93-.93-.93-2.43,0-3.36.93-.93,2.43-.93,3.36,0l4.47,4.47,12.53-12.53c.93-.93,2.43-.93,3.36,0,.93.93.93,2.43,0,3.36l-14.21,14.21c-.45.45-1.05.7-1.68.7Z"/>
        </g>
        <path class="cls-5" d="m109.38,110.32c-.5,0-1-.16-1.41-.47l-.14-.1c-4.73-3.52-8.68-7.77-11.76-12.65-.37-.59-.47-1.32-.25-1.99.21-.67.71-1.21,1.36-1.47,29.12-11.93,48.06-49.05,50.12-53.24.46-.94,1.48-1.46,2.51-1.29,5.44.89,8.35,1.76,8.48,1.79,1,.3,1.68,1.22,1.69,2.26.02,3.34.01,6.69,0,10.03,0,2.13-.01,4.27,0,6.4v1.92c0,.41-.1.82-.3,1.17-4.76,8.45-19.08,29.96-49.1,47.32-.37.21-.78.32-1.19.32Zm-7.74-13.46c2.23,3.07,4.88,5.82,7.91,8.23,27.46-16.26,40.88-35.88,45.67-44.2v-1.29c0-2.15,0-4.29,0-6.42,0-2.72.01-5.45,0-8.17-1.04-.25-2.54-.58-4.48-.92-4.3,8.29-22.22,40.22-49.11,52.78Z"/>
      </g>
      <g>
        <path class="cls-2" d="m25.86,86.24c-1.31,0-2.37-1.06-2.37-2.37v-5.13c0-20.06,16.32-36.39,36.39-36.39h10.26c8.51,0,16.79,3,23.32,8.45,1.01.84,1.14,2.34.3,3.34-.84,1.01-2.34,1.14-3.34.3-5.67-4.74-12.87-7.35-20.27-7.35h-10.26c-17.45,0-31.64,14.19-31.64,31.64v5.13c0,1.31-1.06,2.37-2.37,2.37Z"/>
        <path class="cls-4" d="m111.98,141.04H18.03c-1.31,0-2.37-1.06-2.37-2.37v-54.8c0-1.31,1.06-2.37,2.37-2.37h7.83c1.31,0,2.37,1.06,2.37,2.37s-1.06,2.37-2.37,2.37h-5.46v50.06h89.2v-26.55c0-1.31,1.06-2.37,2.37-2.37s2.37,1.06,2.37,2.37v28.92c0,1.31-1.06,2.37-2.37,2.37Z"/>
        <path class="cls-7" d="m92.93,86.24H25.86c-1.31,0-2.37-1.06-2.37-2.37s1.06-2.37,2.37-2.37h67.06c1.31,0,2.37,1.06,2.37,2.37s-1.06,2.37-2.37,2.37Z"/>
      </g>
    </g>
  </g>
</svg>