<?xml version="1.0" encoding="UTF-8"?>
<svg id="Camada_2" data-name="Camada 2" xmlns="http://www.w3.org/2000/svg" xmlns:xlink="http://www.w3.org/1999/xlink" viewBox="0 0 135.17 148.42">
  <defs>
    <style>
      .cls-1 {
        fill: url(#Gradiente_sem_nome_9-4);
      }

      .cls-2 {
        fill: url(#Gradiente_sem_nome_9-12);
      }

      .cls-3 {
        fill: url(#Gradiente_sem_nome_9);
      }

      .cls-4 {
        fill: url(#Gradiente_sem_nome_9-13);
      }

      .cls-5 {
        fill: url(#Gradiente_sem_nome_9-11);
      }

      .cls-6 {
        fill: url(#Gradiente_sem_nome_9-2);
      }

      .cls-7 {
        fill: url(#Gradiente_sem_nome_9-14);
      }

      .cls-8 {
        fill: url(#Gradiente_sem_nome_9-10);
      }

      .cls-9 {
        fill: url(#Gradiente_sem_nome_9-8);
      }

      .cls-10 {
        fill: url(#Gradiente_sem_nome_9-16);
      }

      .cls-11 {
        fill: url(#Gradiente_sem_nome_9-15);
      }

      .cls-12 {
        fill: url(#Gradiente_sem_nome_9-17);
      }

      .cls-13 {
        fill: url(#Gradiente_sem_nome_9-7);
      }

      .cls-14 {
        fill: url(#Gradiente_sem_nome_9-9);
      }

      .cls-15 {
        fill: url(#Gradiente_sem_nome_9-5);
      }

      .cls-16 {
        fill: url(#Gradiente_sem_nome_9-3);
      }

      .cls-17 {
        fill: url(#Gradiente_sem_nome_9-6);
      }
    </style>
    <linearGradient id="Gradiente_sem_nome_9" data-name="Gradiente sem nome 9" x1="56.47" y1="97.22" x2="77.63" y2="97.22" gradientUnits="userSpaceOnUse">
      <stop offset="0" stop-color="#59bbaa"/>
      <stop offset="1" stop-color="#63b450"/>
    </linearGradient>
    <linearGradient id="Gradiente_sem_nome_9-2" data-name="Gradiente sem nome 9" x1="42.96" y1="128.01" x2="91.13" y2="128.01" xlink:href="#Gradiente_sem_nome_9"/>
    <linearGradient id="Gradiente_sem_nome_9-3" data-name="Gradiente sem nome 9" x1="103.5" y1="97.21" x2="124.36" y2="97.21" xlink:href="#Gradiente_sem_nome_9"/>
    <linearGradient id="Gradiente_sem_nome_9-4" data-name="Gradiente sem nome 9" x1="92.68" y1="128.01" x2="135.17" y2="128.01" xlink:href="#Gradiente_sem_nome_9"/>
    <linearGradient id="Gradiente_sem_nome_9-5" data-name="Gradiente sem nome 9" x1="10.82" y1="97.21" x2="31.67" y2="97.21" xlink:href="#Gradiente_sem_nome_9"/>
    <linearGradient id="Gradiente_sem_nome_9-6" data-name="Gradiente sem nome 9" x1="0" y1="128.01" x2="42.49" y2="128.01" xlink:href="#Gradiente_sem_nome_9"/>
    <linearGradient id="Gradiente_sem_nome_9-7" data-name="Gradiente sem nome 9" x1="64.68" y1="104.46" x2="116.3" y2="104.46" xlink:href="#Gradiente_sem_nome_9"/>
    <linearGradient id="Gradiente_sem_nome_9-8" data-name="Gradiente sem nome 9" x1="18.87" y1="104.53" x2="69.42" y2="104.53" xlink:href="#Gradiente_sem_nome_9"/>
    <linearGradient id="Gradiente_sem_nome_9-9" data-name="Gradiente sem nome 9" x1="37.53" y1="33.24" x2="97.64" y2="33.24" xlink:href="#Gradiente_sem_nome_9"/>
    <linearGradient id="Gradiente_sem_nome_9-10" data-name="Gradiente sem nome 9" x1="10.51" y1="54.16" x2="124.07" y2="54.16" xlink:href="#Gradiente_sem_nome_9"/>
    <linearGradient id="Gradiente_sem_nome_9-11" data-name="Gradiente sem nome 9" x1="11.19" y1="53.98" x2="124.67" y2="53.98" xlink:href="#Gradiente_sem_nome_9"/>
    <linearGradient id="Gradiente_sem_nome_9-12" data-name="Gradiente sem nome 9" x1="34.31" y1="76.16" x2="53.82" y2="76.16" xlink:href="#Gradiente_sem_nome_9"/>
    <linearGradient id="Gradiente_sem_nome_9-13" data-name="Gradiente sem nome 9" x1="80.24" y1="76.03" x2="99.48" y2="76.03" xlink:href="#Gradiente_sem_nome_9"/>
    <linearGradient id="Gradiente_sem_nome_9-14" data-name="Gradiente sem nome 9" x1="50" y1="105.44" x2="58.34" y2="105.44" xlink:href="#Gradiente_sem_nome_9"/>
    <linearGradient id="Gradiente_sem_nome_9-15" data-name="Gradiente sem nome 9" x1="29.02" y1="104.86" x2="36.99" y2="104.86" xlink:href="#Gradiente_sem_nome_9"/>
    <linearGradient id="Gradiente_sem_nome_9-16" data-name="Gradiente sem nome 9" x1="97.68" y1="103.94" x2="102.42" y2="103.94" xlink:href="#Gradiente_sem_nome_9"/>
    <linearGradient id="Gradiente_sem_nome_9-17" data-name="Gradiente sem nome 9" x1="77.75" y1="105.04" x2="82.5" y2="105.04" xlink:href="#Gradiente_sem_nome_9"/>
  </defs>
  <g id="Layer_3" data-name="Layer 3">
    <g>
      <g>
        <g>
          <path class="cls-3" d="m67.05,107.79c-5.83,0-10.58-4.75-10.58-10.58s4.74-10.58,10.58-10.58,10.58,4.74,10.58,10.58-4.74,10.58-10.58,10.58Zm0-16.41c-3.21,0-5.83,2.61-5.83,5.83s2.61,5.83,5.83,5.83,5.83-2.62,5.83-5.83-2.61-5.83-5.83-5.83Z"/>
          <path class="cls-6" d="m67.04,148.42c-5.09,0-11.13-1.64-16.16-4.39-.02,0-.03-.02-.05-.03-.04-.02-.07-.04-.1-.06-2.03-1.29-5.12-3.56-7.15-5.74-.58-.63-.78-1.52-.52-2.34l6.75-21.26c.78-2.45,4.8-7.02,9.7-7.02h14.96c4.69,0,9,4.54,9.78,7.02l6.75,21.26c.26.82.06,1.71-.52,2.34-2.01,2.16-5.15,4.46-7.23,5.78-.04.03-.09.05-.13.08-.01,0-.02.01-.03.02-5.05,2.72-11.05,4.34-16.06,4.34Zm-12.17-7.69c3.96,1.86,8.39,2.94,12.17,2.94s8.12-1.09,12.07-2.91l-5.13-16.67c-.12-.15-.21-.31-.29-.48-.43-.96-.27-2.35,1.12-3.14.18-.1.38-.18.58-.24,0,0,0,0,0,0h0s0,0,.01,0c0,0,0,0,0,0,0,0,0,0,0,0h0s0,0,0,0c0,0,0,0,0,0h0s0,0,0,0c0,0,0,0,0,0h0s0,0,0,0c0,0,0,0,0,0,0,0,0,0,.01,0,0,0,0,0,0,0,0,0,0,0,0,0h0s0,0,0,0h0c.05-.01.11-.02.16-.03,1.58-.24,2.58.75,2.83,1.77.06.24.08.5.06.75l4.76,15.48c.97-.72,1.94-1.51,2.76-2.27l-6.31-19.88c-.3-.87-2.97-3.71-5.26-3.71h-14.96c-2.38,0-4.88,2.78-5.18,3.71l-6.32,19.88c.81.75,1.74,1.52,2.68,2.22l4.76-15.47c-.01-.25.01-.5.07-.74.28-1.06,1.35-1.98,2.86-1.72.16.03.31.07.46.13h0s0,0,0,0c0,0,0,0,0,0,0,0,0,0,0,0,0,0,0,0,0,0,0,0,0,0,0,0,0,0,0,0,0,0h0c.09.04.17.08.26.12,1.33.74,1.58,2.13,1.13,3.13-.07.16-.16.3-.26.44l-5.14,16.69Z"/>
        </g>
        <g>
          <path class="cls-16" d="m113.93,107.64c-5.75,0-10.43-4.68-10.43-10.43s4.68-10.43,10.43-10.43,10.43,4.68,10.43,10.43-4.68,10.43-10.43,10.43Zm0-16.11c-3.13,0-5.68,2.55-5.68,5.68s2.55,5.68,5.68,5.68,5.68-2.55,5.68-5.68-2.55-5.68-5.68-5.68Z"/>
          <path class="cls-1" d="m113.93,148.42c-4,0-8.68-1.2-11.73-2.32-.03,0-.06-.02-.08-.03h0s-.07-.03-.1-.05c-2.4-1.1-6.06-3.13-8.51-5.27-.52-.45-.81-1.1-.81-1.79v-23.4c0-4.4,3.58-7.99,7.98-7.99h26.52c4.4,0,7.98,3.58,7.98,7.99h0v6.18s0,17.22,0,17.22c0,.69-.3,1.34-.81,1.79-2.45,2.14-6.09,4.16-8.46,5.25-.04.02-.08.04-.12.05h0s0,0,0,0c-.02,0-.04.01-.05.02-3.04,1.13-7.74,2.34-11.79,2.34Zm-8.55-6.25c2.5.78,5.79,1.5,8.55,1.5,2.4,0,5.63-.58,8.59-1.52v-20.55c0-1.31,1.06-2.37,2.37-2.37s2.37,1.06,2.37,2.37v18.33c1.11-.65,2.22-1.37,3.15-2.09v-16.09s0-6.18,0-6.18c0-1.79-1.45-3.24-3.24-3.24h-26.52c-1.79,0-3.24,1.45-3.24,3.24v22.27c.95.73,2.07,1.45,3.2,2.11v-18.35c0-1.31,1.06-2.37,2.37-2.37s2.37,1.06,2.37,2.37v20.56Zm27.42-26.6h0,0Z"/>
        </g>
        <g>
          <path class="cls-15" d="m21.24,107.64c-5.75,0-10.43-4.68-10.43-10.43s4.68-10.43,10.43-10.43,10.43,4.68,10.43,10.43-4.68,10.43-10.43,10.43Zm0-16.11c-3.13,0-5.68,2.55-5.68,5.68s2.55,5.68,5.68,5.68,5.68-2.55,5.68-5.68-2.55-5.68-5.68-5.68Z"/>
          <path class="cls-17" d="m21.25,148.42c-4,0-8.68-1.2-11.73-2.32-.03,0-.06-.02-.09-.03h0s-.07-.03-.1-.05c-2.4-1.1-6.06-3.13-8.51-5.27-.52-.45-.81-1.1-.81-1.79v-23.4c0-4.4,3.58-7.99,7.98-7.99h26.52c4.4,0,7.98,3.58,7.98,7.99h0v6.18s0,17.22,0,17.22c0,.69-.3,1.34-.81,1.79-2.45,2.14-6.09,4.16-8.46,5.25-.04.02-.08.04-.12.05h0s0,0,0,0c-.02,0-.04.01-.05.02-3.04,1.13-7.74,2.34-11.79,2.34Zm-8.55-6.25c2.5.78,5.79,1.5,8.55,1.5,2.4,0,5.63-.58,8.59-1.52v-20.55c0-1.31,1.06-2.37,2.37-2.37s2.37,1.06,2.37,2.37v18.33c1.11-.65,2.22-1.37,3.15-2.09v-16.09s0-6.18,0-6.18c0-1.79-1.45-3.24-3.24-3.24H7.98c-1.78,0-3.24,1.45-3.24,3.24v22.27c.95.73,2.07,1.45,3.2,2.11v-18.35c0-1.31,1.06-2.37,2.37-2.37s2.37,1.06,2.37,2.37v20.56Zm27.42-26.6h0,0Z"/>
        </g>
      </g>
      <g>
        <path class="cls-13" d="m90.13,124.84c-2.07,0-4.3-.27-6.62-.8-.82-.19-1.48-.79-1.73-1.6l-2.03-6.4c-.3-.87-2.97-3.71-5.26-3.71h-7.44c-1.31,0-2.37-1.06-2.37-2.37v-4.55c0-1.31,1.06-2.37,2.37-2.37,3.21,0,5.83-2.62,5.83-5.83,0-1.71-.75-3.33-2.06-4.44-.9-.77-1.1-2.08-.47-3.08l1.57-2.48c.04-.06.08-.11.12-.17,1.42-1.88,3.58-2.95,5.9-2.95h23.87c2.8,0,5.34,1.57,6.61,4.1l1.47,2.67c.48.86.37,1.93-.27,2.68-.87,1.03-1.36,2.33-1.36,3.67,0,3.13,2.55,5.68,5.68,5.68,1.31,0,2.37,1.06,2.37,2.37v4.7c0,1.31-1.06,2.37-2.37,2.37h-13.26c-1.79,0-3.24,1.45-3.24,3.24v6.37c0,1.14-.81,2.12-1.93,2.33-1.93.37-3.74.56-5.38.56Zm-4.25-5.16c1.49.27,2.92.41,4.25.41.8,0,1.65-.06,2.55-.17v-4.35c0-4.4,3.58-7.99,7.99-7.99h10.88v-.22c-4.61-1.08-8.05-5.22-8.05-10.16,0-1.9.52-3.75,1.5-5.37l-.79-1.44c-.5-.99-1.41-1.57-2.41-1.57h-23.87c-.8,0-1.55.37-2.06,1.01l-.51.81c1.47,1.85,2.28,4.15,2.28,6.55,0,5.02-3.51,9.23-8.2,10.31v.07h5.06c4.69,0,9,4.54,9.78,7.02l1.61,5.07Z"/>
        <path class="cls-9" d="m44.04,124.84c-1.37,0-2.81-.12-4.28-.34-1.16-.18-2.01-1.18-2.01-2.35v-6.57c0-1.79-1.45-3.24-3.24-3.24h-13.26c-1.31,0-2.37-1.06-2.37-2.37v-4.7c0-1.31,1.06-2.37,2.37-2.37,3.13,0,5.68-2.55,5.68-5.68,0-.57-.09-1.13-.25-1.67-.17-.57-.13-1.18.13-1.72l1.76-3.68c1.05-2.44,4.71-5.92,8.74-5.92h13.47c3.86,0,7.54,3.34,8.74,5.77l1.91,2.93c.42.64.5,1.45.22,2.17-.27.69-.41,1.4-.41,2.12,0,3.21,2.61,5.83,5.83,5.83,1.31,0,2.37,1.06,2.37,2.37v4.55c0,1.31-1.06,2.37-2.37,2.37h-7.53c-2.38,0-4.88,2.78-5.18,3.71l-2.04,6.41c-.25.8-.92,1.41-1.74,1.6-2.3.52-4.5.79-6.54.79Zm-1.55-4.81c.53.04,1.04.06,1.55.06,1.3,0,2.7-.14,4.17-.4l1.61-5.08c.78-2.45,4.8-7.02,9.7-7.02h5.15v-.07c-4.69-1.08-8.2-5.29-8.2-10.31,0-.89.11-1.78.34-2.64l-1.38-2.12c-.07-.1-.13-.21-.18-.32-.42-.94-2.72-3.16-4.5-3.16h-13.47c-1.9,0-4,2.18-4.42,3.14l-1.42,2.98c.14.7.22,1.41.22,2.12,0,4.93-3.44,9.08-8.05,10.16v.22h10.89c4.4,0,7.98,3.58,7.98,7.99v4.46Z"/>
      </g>
      <path class="cls-14" d="m95.27,66.48c-1.31,0-2.37-1.06-2.37-2.37,0-1.6-.03-3.23-.08-4.83-1.06-30.06-12.38-54.52-25.22-54.52s-24.27,24.66-25.24,54.96c-.05,1.46-.07,2.94-.07,4.39,0,1.31-1.06,2.37-2.37,2.37s-2.37-1.06-2.37-2.37c0-1.5.02-3.03.07-4.54C38.69,25.6,51.58,0,67.59,0s28.78,25.41,29.97,59.1c.06,1.66.09,3.34.09,5,0,1.31-1.06,2.37-2.37,2.37Z"/>
      <path class="cls-8" d="m121.69,86.46c-1.08,0-2.06-.75-2.31-1.85-3-13.14-18.17-29.68-38.64-42.14-13.81-8.4-28.21-13.88-40.57-15.43-11.53-1.45-20.02.81-23.3,6.2-4.59,7.55,1.08,21.1,14.46,34.54.92.93.92,2.43,0,3.36-.93.92-2.43.92-3.36,0-15.43-15.5-21.1-30.58-15.15-40.36,4.36-7.16,14.28-10.16,27.94-8.45,13,1.63,28.08,7.35,42.44,16.09,21.51,13.09,37.53,30.8,40.8,45.13.29,1.28-.51,2.55-1.79,2.84-.18.04-.36.06-.53.06Z"/>
      <path class="cls-5" d="m13.57,86.1c-.19,0-.38-.02-.56-.07-1.27-.31-2.06-1.59-1.75-2.87,3.47-14.24,19.45-31.8,40.71-44.74,30.71-18.68,61.63-22.04,70.39-7.64,5.94,9.76.28,24.84-15.13,40.33-.92.93-2.43.93-3.36,0-.93-.92-.93-2.43,0-3.36,13.36-13.42,19.03-26.97,14.44-34.51-7.13-11.72-36.38-7.49-63.86,9.23-20.24,12.32-35.38,28.73-38.56,41.81-.26,1.09-1.24,1.81-2.3,1.81Z"/>
      <path class="cls-2" d="m44.07,85.92c-5.38,0-9.76-4.38-9.76-9.76s4.38-9.76,9.76-9.76,9.76,4.38,9.76,9.76-4.38,9.76-9.76,9.76Zm0-14.76c-2.76,0-5.01,2.25-5.01,5.01s2.25,5.01,5.01,5.01,5.01-2.25,5.01-5.01-2.25-5.01-5.01-5.01Z"/>
      <path class="cls-4" d="m89.86,85.65c-5.31,0-9.62-4.32-9.62-9.62s4.32-9.62,9.62-9.62,9.62,4.32,9.62,9.62-4.32,9.62-9.62,9.62Zm0-14.5c-2.69,0-4.87,2.19-4.87,4.88s2.19,4.87,4.87,4.87,4.87-2.19,4.87-4.87-2.19-4.88-4.87-4.88Z"/>
      <path class="cls-7" d="m55.97,113.44c-1.01,0-1.95-.66-2.27-1.68l-3.2-10.39c-.12-.15-.21-.31-.29-.48-.43-.96-.27-2.35,1.12-3.14,0,0,.02,0,.03-.01,0,0,0,0,0,0,0,0,0,0,0,0,.28-.15.58-.25.88-.28,1.52-.19,2.49.78,2.74,1.79.06.24.08.49.06.75l3.19,10.38c.39,1.25-.32,2.58-1.57,2.97-.23.07-.47.11-.7.11Z"/>
      <path class="cls-11" d="m31.4,112.28c-.23,0-.47-.03-.7-.11-1.25-.39-1.96-1.71-1.57-2.97l2.85-9.27c-.01-.25.01-.5.08-.74.28-1.06,1.36-1.98,2.86-1.72.02,0,.05,0,.07.01.27.06.53.16.75.3,1.26.75,1.48,2.1,1.05,3.08-.07.15-.16.3-.26.44l-2.86,9.29c-.31,1.02-1.25,1.68-2.27,1.68Z"/>
      <path class="cls-10" d="m100.05,112.16c-1.31,0-2.37-1.06-2.37-2.37v-11.69c0-1.31,1.06-2.37,2.37-2.37s2.37,1.06,2.37,2.37v11.69c0,1.31-1.06,2.37-2.37,2.37Z"/>
      <path class="cls-12" d="m80.12,114.36c-1.31,0-2.37-1.06-2.37-2.37v-13.9c0-1.31,1.06-2.37,2.37-2.37s2.37,1.06,2.37,2.37v13.9c0,1.31-1.06,2.37-2.37,2.37Z"/>
    </g>
  </g>
</svg>