<svg xmlns="http://www.w3.org/2000/svg" xmlns:xlink="http://www.w3.org/1999/xlink" viewBox="0 0 366.23 179.66"><defs><style>.cls-1{fill:url(#Gradiente_sem_nome_17);}.cls-2{fill:url(#Gradiente_sem_nome_17-2);}.cls-3{fill:url(#Gradiente_sem_nome_17-3);}.cls-4{fill:url(#Gradiente_sem_nome_17-4);}.cls-5{fill:url(#Gradiente_sem_nome_17-5);}.cls-6{fill:url(#Gradiente_sem_nome_17-6);}.cls-7{fill:url(#Gradiente_sem_nome_17-7);}.cls-8{fill:#fff;}</style><linearGradient id="Gradiente_sem_nome_17" x1="129.12" y1="39.98" x2="195.98" y2="39.98" gradientUnits="userSpaceOnUse"><stop offset="0" stop-color="#59bbaa"/><stop offset="1" stop-color="#63b450"/></linearGradient><linearGradient id="Gradiente_sem_nome_17-2" x1="133.54" y1="50.17" x2="189.5" y2="50.17" xlink:href="#Gradiente_sem_nome_17"/><linearGradient id="Gradiente_sem_nome_17-3" x1="140.24" y1="58.44" x2="164.73" y2="58.44" xlink:href="#Gradiente_sem_nome_17"/><linearGradient id="Gradiente_sem_nome_17-4" x1="147.2" y1="69.49" x2="183.15" y2="69.49" xlink:href="#Gradiente_sem_nome_17"/><linearGradient id="Gradiente_sem_nome_17-5" x1="153.25" y1="78.42" x2="176.95" y2="78.42" xlink:href="#Gradiente_sem_nome_17"/><linearGradient id="Gradiente_sem_nome_17-6" x1="160.86" y1="86.09" x2="171.5" y2="86.09" xlink:href="#Gradiente_sem_nome_17"/><linearGradient id="Gradiente_sem_nome_17-7" x1="127.09" y1="25.05" x2="199.69" y2="25.05" xlink:href="#Gradiente_sem_nome_17"/></defs><g id="Camada_2" data-name="Camada 2"><g id="Camada_1-2" data-name="Camada 1"><path class="cls-1" d="M192.46,59.3a17.3,17.3,0,0,1-7.14-1.42,15.2,15.2,0,0,1-5.83-4.7c-2.9-3.73-4.49-8.63-6-13.37-2.06-6.35-4-12.35-8.7-14.11a9.36,9.36,0,0,0-9.7,1.65c-2.73,2.37-4.09,5.62-5.39,10.08-1.09,3.7-2.52,7.94-5.73,11.47a19,19,0,0,1-12.49,5.88,2.19,2.19,0,0,1-.3-4.36A14.67,14.67,0,0,0,140.72,46c2.33-2.56,3.55-5.63,4.76-9.76s2.81-8.73,6.72-12.14a13.68,13.68,0,0,1,6.69-3.2,14.39,14.39,0,0,1,7.4.75c6.67,2.5,9,9.8,11.32,16.86,1.42,4.38,2.89,8.9,5.32,12,2.57,3.3,6,4.7,10.73,4.4a2.18,2.18,0,1,1,.28,4.35C193.44,59.28,193,59.3,192.46,59.3Z"/><path class="cls-2" d="M187.32,68.41a2.24,2.24,0,0,1-.67-.11A34.7,34.7,0,0,1,179.2,65a26.58,26.58,0,0,1-6.37-5.36,23.29,23.29,0,0,1-5.14-11.72c-.15-.95-.25-1.87-.34-2.76-.26-2.44-.49-4.56-1.66-6.49a4.31,4.31,0,0,0-3.81-2.31,2.68,2.68,0,0,0-2.25,1.82A38.46,38.46,0,0,1,136.54,64.9a2.18,2.18,0,0,1-1.63-4.05A34.07,34.07,0,0,0,155.42,37l0-.16.06-.15a7,7,0,0,1,6-4.69A7.88,7.88,0,0,1,166,33a9.52,9.52,0,0,1,3.46,3.39c1.68,2.77,2,5.58,2.26,8.29.09.84.18,1.7.31,2.54a19.09,19.09,0,0,0,4.15,9.57A25.44,25.44,0,0,0,188,64.15a2.18,2.18,0,0,1-.66,4.26Z"/><path class="cls-3" d="M142.42,72.12a2.18,2.18,0,0,1-.81-4.2c7.38-3,16.2-10.16,18.82-21.48a2.18,2.18,0,1,1,4.25,1A34.19,34.19,0,0,1,156.3,63a36.61,36.61,0,0,1-13.07,9A2.13,2.13,0,0,1,142.42,72.12Z"/><path class="cls-4" d="M149.38,78.23a2.18,2.18,0,0,1-.82-4.2c7.57-3.09,12.88-9.83,13.46-10.59a6.16,6.16,0,0,1,3.39-2.57,4.74,4.74,0,0,1,3.83.81,11.38,11.38,0,0,1,2.18,2l.36.42c2.11,2.46,4.74,5.53,9.7,6.73a2.18,2.18,0,1,1-1,4.24c-6.33-1.53-9.73-5.51-12-8.14-.12-.14-.24-.27-.35-.41-1.23-1.42-1.66-1.45-1.71-1.45a3.52,3.52,0,0,0-.93,1c-1.06,1.4-6.81,8.53-15.27,12A2.19,2.19,0,0,1,149.38,78.23Z"/><path class="cls-5" d="M155.43,84.81a2.15,2.15,0,0,1-1.63-.73A2.18,2.18,0,0,1,154,81a103.67,103.67,0,0,1,9.42-7.41A6.86,6.86,0,0,1,167.89,72a6.77,6.77,0,0,1,3.7,1.9l4.6,3.9a2.18,2.18,0,0,1-2.83,3.32l-4.59-3.9a4.06,4.06,0,0,0-1.31-.88,4.09,4.09,0,0,0-1.57.79,99.45,99.45,0,0,0-9,7.1A2.19,2.19,0,0,1,155.43,84.81Z"/><path class="cls-6" d="M163,91.61a2.23,2.23,0,0,1-1-.24,2.19,2.19,0,0,1-.94-2.94,20.69,20.69,0,0,1,7-7.48,2.18,2.18,0,0,1,2.45,3.61A16.31,16.31,0,0,0,165,90.43,2.18,2.18,0,0,1,163,91.61Z"/><path class="cls-7" d="M192.88,50.09a12.32,12.32,0,0,1-3.49-.48A10.71,10.71,0,0,1,184.06,46c-2.51-3.1-3.78-7.51-5.14-12.18C176.65,26,174.3,17.85,166.07,15c-10-3.45-18.34,4.87-22.41,13-1.07,2.16-1.95,4.35-2.8,6.46a42,42,0,0,1-3.17,6.79c-1.6,2.47-3.55,3.57-5.78,3.26a5.38,5.38,0,0,1-3.59-2.23,6.62,6.62,0,0,1-1.23-3.83c0-6.8,2.93-14.75,8-21.8a48,48,0,0,1,8.59-9.09,36.34,36.34,0,0,1,10.52-6A24.15,24.15,0,0,1,168.84.77c5.15,1.39,9.82,4.61,13.89,9.57,2.89,3.53,5.13,8.49,6.51,12a75.27,75.27,0,0,1,3.44,11.44c.37,1.84,1.39,2.48,1.86,2.4s1-1,.74-3v-.12c0-.12-.81-12.71-7.72-20.26a2.18,2.18,0,0,1,3.21-3c3.37,3.69,5.89,8.67,7.48,14.83a46.2,46.2,0,0,1,1.38,8.08c.51,4.79-1.84,7.34-4.41,7.74a5.39,5.39,0,0,1-4.36-1.36,8,8,0,0,1-2.44-4.49c-1.09-5.38-4.5-16-9.06-21.56C171.05,3,161.92,3.47,155.72,5.69s-12.37,7.15-17.05,13.59-7.22,13.34-7.22,19.24a1.76,1.76,0,0,0,1.05,1.74c1.28.17,3-4,4.31-7.36.84-2.09,1.79-4.46,2.95-6.78a34.18,34.18,0,0,1,10.31-12.46c5.45-3.85,11.47-4.8,17.41-2.76a19.67,19.67,0,0,1,10.92,9.26c2.23,3.88,3.49,8.22,4.71,12.41s2.39,8.24,4.34,10.65c1.3,1.61,3.47,3.3,8.67,2.1a2.18,2.18,0,1,1,1,4.24A18.32,18.32,0,0,1,192.88,50.09Z"/><path class="cls-8" d="M70.11,159.82H72v19.65H68.59V167.32L62,177.07l-6.54-9.75v12.15H52.06V159.82h1.49l8.28,12Z"/><path class="cls-8" d="M82.46,176.57H93.89v2.9H79.12V159.82H93.3v2.9H82.46v5.82h9.12v2.79H82.46Z"/><path class="cls-8" d="M103.59,159.82v19.65h-3.46V159.82Z"/><path class="cls-8" d="M112.94,162.58a10.73,10.73,0,0,1,14.74,0,9.74,9.74,0,0,1,0,14.16,10.76,10.76,0,0,1-14.74,0,9.74,9.74,0,0,1,0-14.16Zm2.48,12a7,7,0,0,0,9.78,0,6.91,6.91,0,1,0-9.78,0Z"/><path class="cls-8" d="M163.73,179.47l-1.92-4.35h-9.27l-1.91,4.35H147l9.28-19.65h1.76l9.28,19.65Zm-6.58-14.83-3.39,7.69h6.82Z"/><path class="cls-8" d="M190.71,159.82h1.9v19.65h-3.43V167.32l-6.55,9.75-6.55-9.75v12.15h-3.43V159.82h1.49l8.28,12Z"/><path class="cls-8" d="M212.34,163.86a3.94,3.94,0,0,1-1.45,3.18,5.57,5.57,0,0,1,3.83,2.06,6.35,6.35,0,0,1,1.47,4.15,6.5,6.5,0,0,1-1.58,4.41,5.46,5.46,0,0,1-4.36,1.81H199.71V159.82h8.34a4.26,4.26,0,0,1,3,1.17A3.77,3.77,0,0,1,212.34,163.86Zm-9.28-1.14v4h4.21a1.86,1.86,0,0,0,1.5-.6,2.06,2.06,0,0,0,.5-1.38,1.8,1.8,0,0,0-.67-1.44,2.64,2.64,0,0,0-1.78-.57Zm0,13.85h5.38a4.32,4.32,0,0,0,3.12-1,3.52,3.52,0,0,0,1-2.65,3.64,3.64,0,0,0-1.06-2.61,4.09,4.09,0,0,0-3.07-1.1h-5.4Z"/><path class="cls-8" d="M225.69,159.82v19.65h-3.46V159.82Z"/><path class="cls-8" d="M236.17,176.57h11.42v2.9H232.82V159.82H247v2.9H236.17v5.82h9.11v2.79h-9.11Z"/><path class="cls-8" d="M267.72,159.82h3.42v19.65h-1.7L257.21,166v13.46h-3.43V159.82h1.65l12.29,13.52Z"/><path class="cls-8" d="M293.47,159.82v2.9H287v16.75H283.6V162.72h-6.44v-2.9Z"/><path class="cls-8" d="M302.75,176.57h11.42v2.9H299.4V159.82h14.19v2.9H302.75v5.82h9.11v2.79h-9.11Z"/><path class="cls-8" d="M184.6,96.77l-5.92,6.44H166.85L177.3,91.93a1.06,1.06,0,0,1,1.37-.16l5.78,3.78A.8.8,0,0,1,184.6,96.77Z"/><path class="cls-8" d="M36.4,129.12H13.16a7.44,7.44,0,0,0,7.68,5.55c2.4,0,4.58-1.5,6.54-4.48l8,6.48a17.38,17.38,0,0,1-6.92,5.68,22.54,22.54,0,0,1-9.78,2.07A17.88,17.88,0,0,1,5.28,139a19.66,19.66,0,0,1,0-26.81,17.82,17.82,0,0,1,13.42-5.47q8.09,0,12.92,5.27t4.84,13.62Zm-23.24-7.34H24a5.3,5.3,0,0,0-1.47-3.48,4.84,4.84,0,0,0-3.81-1.66,5.08,5.08,0,0,0-3.54,1.5A6.44,6.44,0,0,0,13.16,121.78Z"/><path class="cls-8" d="M66.45,129.12l8.28,7.48a17.57,17.57,0,0,1-6.31,5.75,17.12,17.12,0,0,1-8.25,2.07,19.84,19.84,0,0,1-14.12-5.51,18.18,18.18,0,0,1,0-26.72,19.83,19.83,0,0,1,14.12-5.5,17.26,17.26,0,0,1,8.38,2.07,17.63,17.63,0,0,1,6.31,5.67L66.45,122a7.62,7.62,0,0,0-2.61-2.91,6.54,6.54,0,0,0-3.67-1.1,6.46,6.46,0,0,0-5,2.24,7.69,7.69,0,0,0-2,5.37,7.53,7.53,0,0,0,2.07,5.35,6.66,6.66,0,0,0,8.61,1.1A7.55,7.55,0,0,0,66.45,129.12Z"/><path class="cls-8" d="M82.91,112.19a20.89,20.89,0,0,1,28.25,0,18.2,18.2,0,0,1,0,26.72,20.86,20.86,0,0,1-28.25,0,18.2,18.2,0,0,1,0-26.72Zm9.18,18.74a6.66,6.66,0,0,0,9.89,0,7.53,7.53,0,0,0,2.07-5.35,7.69,7.69,0,0,0-2-5.37,6.64,6.64,0,0,0-10,0,7.69,7.69,0,0,0-2,5.37A7.53,7.53,0,0,0,92.09,130.93Z"/><path class="cls-8" d="M143.05,114.3q8.88,1.94,13.19,5.17t4.3,9.59a13.58,13.58,0,0,1-5.17,11.25q-5.18,4.11-13.86,4.11a54,54,0,0,1-10.88-.91,40.06,40.06,0,0,1-9.75-3.63l4.94-10a37.1,37.1,0,0,0,16.16,3.4q4.82,0,4.81-3a2.67,2.67,0,0,0-1.54-2.27,22.3,22.3,0,0,0-5.94-1.94,69.56,69.56,0,0,1-7.05-1.94,26.82,26.82,0,0,1-5.37-2.57,10.16,10.16,0,0,1-3.94-4.2,15,15,0,0,1,3.64-17.13Q131.5,96,139.91,96a53.79,53.79,0,0,1,19,3.87l-5.47,10.35q-8.22-3.06-13.89-3.07a4.92,4.92,0,0,0-3,.8,2.52,2.52,0,0,0-1,2.07A2.72,2.72,0,0,0,137,112.4,24.18,24.18,0,0,0,143.05,114.3Z"/><path class="cls-8" d="M166.09,144.41V106.69h13.29v37.72Z"/><path class="cls-8" d="M206.63,106.69q8.75,0,12.15,3.87t3.4,13.29v20.56H208.9V123.85c0-2.14-.34-3.65-1-4.54S206,118,204.15,118a6.22,6.22,0,0,0-4.6,1.8v24.64H186.26V106.69h13.29v1.93A14.58,14.58,0,0,1,206.63,106.69Z"/><path class="cls-8" d="M252.17,117h-7.88v9.81q0,4.49.63,5.68t3.84,1.2c1.29,0,2.38,0,3.28-.06v9.28l-.34.14c-.22.08-.6.21-1.13.36s-1.16.31-1.87.47a26.38,26.38,0,0,1-2.74.4c-1.11.11-2.27.17-3.47.17a11.49,11.49,0,0,1-8.29-3.08q-3.19-3.06-3.2-8.88V117h-4.34V106.69H231V93.39h13.29v13.3h7.88Z"/><path class="cls-8" d="M291.64,129.12H268.4a7.44,7.44,0,0,0,7.68,5.55c2.4,0,4.58-1.5,6.54-4.48l8,6.48a17.38,17.38,0,0,1-6.92,5.68,22.54,22.54,0,0,1-9.78,2.07A17.88,17.88,0,0,1,260.52,139a19.66,19.66,0,0,1,0-26.81,17.82,17.82,0,0,1,13.42-5.47q8.08,0,12.92,5.27t4.84,13.62Zm-23.24-7.34h10.82a5.25,5.25,0,0,0-1.47-3.48,4.84,4.84,0,0,0-3.81-1.66,5.08,5.08,0,0,0-3.54,1.5A6.44,6.44,0,0,0,268.4,121.78Z"/><path class="cls-8" d="M295.11,140.88l4.87-9.29a49.89,49.89,0,0,0,6.31,2.31,20.68,20.68,0,0,0,5.31.63c1.65,0,2.47-.47,2.47-1.4a1.3,1.3,0,0,0-.8-1.17,23,23,0,0,0-4.14-1.24q-6.6-1.46-10-4.13c-2.27-1.78-3.41-4.48-3.41-8.08a10.71,10.71,0,0,1,3.81-8.59c2.53-2.16,6-3.23,10.41-3.23a41.4,41.4,0,0,1,14.83,3l-4.47,9.21a31.92,31.92,0,0,0-10.62-2.26,3.81,3.81,0,0,0-1.84.26,1.1,1.1,0,0,0-.37.94c0,.53.39,1,1.17,1.33a28.17,28.17,0,0,0,4.64,1.34q6.62,1.47,9.69,4.14c2,1.78,3.07,4.36,3.07,7.75a10.56,10.56,0,0,1-4.08,8.84q-4.06,3.18-10.75,3.18a41.49,41.49,0,0,1-8.44-.71A33.24,33.24,0,0,1,295.11,140.88Z"/><path class="cls-8" d="M366.16,129.12H342.93a7.44,7.44,0,0,0,7.68,5.55c2.4,0,4.58-1.5,6.54-4.48l8,6.48a17.28,17.28,0,0,1-6.91,5.68,22.57,22.57,0,0,1-9.78,2.07A17.88,17.88,0,0,1,335.05,139a19.66,19.66,0,0,1,0-26.81,17.82,17.82,0,0,1,13.42-5.47q8.07,0,12.92,5.27t4.84,13.62Zm-23.23-7.34h10.81a5.25,5.25,0,0,0-1.47-3.48,4.82,4.82,0,0,0-3.8-1.66,5.08,5.08,0,0,0-3.54,1.5A6.44,6.44,0,0,0,342.93,121.78Z"/></g></g></svg>