<svg xmlns="http://www.w3.org/2000/svg" xmlns:xlink="http://www.w3.org/1999/xlink" viewBox="0 0 575.61 101.21"><defs><style>.cls-1{fill:#3c3c3b;}.cls-2{fill:url(#Gradiente_sem_nome_17);}.cls-3{fill:url(#Gradiente_sem_nome_17-2);}.cls-4{fill:url(#Gradiente_sem_nome_17-3);}.cls-5{fill:url(#Gradiente_sem_nome_17-4);}.cls-6{fill:url(#Gradiente_sem_nome_17-5);}.cls-7{fill:url(#Gradiente_sem_nome_17-6);}.cls-8{fill:url(#Gradiente_sem_nome_17-7);}.cls-9{fill:#343534;}</style><linearGradient id="Gradiente_sem_nome_17" x1="127.81" y1="23.63" x2="167.33" y2="23.63" gradientUnits="userSpaceOnUse"><stop offset="0" stop-color="#59bbaa"/><stop offset="1" stop-color="#63b450"/></linearGradient><linearGradient id="Gradiente_sem_nome_17-2" x1="130.43" y1="29.65" x2="163.49" y2="29.65" xlink:href="#Gradiente_sem_nome_17"/><linearGradient id="Gradiente_sem_nome_17-3" x1="134.38" y1="34.54" x2="148.86" y2="34.54" xlink:href="#Gradiente_sem_nome_17"/><linearGradient id="Gradiente_sem_nome_17-4" x1="138.5" y1="41.07" x2="159.74" y2="41.07" xlink:href="#Gradiente_sem_nome_17"/><linearGradient id="Gradiente_sem_nome_17-5" x1="142.07" y1="46.35" x2="156.08" y2="46.35" xlink:href="#Gradiente_sem_nome_17"/><linearGradient id="Gradiente_sem_nome_17-6" x1="146.57" y1="50.88" x2="152.86" y2="50.88" xlink:href="#Gradiente_sem_nome_17"/><linearGradient id="Gradiente_sem_nome_17-7" x1="126.61" y1="14.8" x2="169.52" y2="14.8" xlink:href="#Gradiente_sem_nome_17"/></defs><g id="Camada_2" data-name="Camada 2"><g id="Camada_1-2" data-name="Camada 1"><path class="cls-1" d="M354.67,83.24h1.71V101h-3.1V90l-5.93,8.83L341.42,90v11h-3.1V83.24h1.35l7.5,10.84Z"/><path class="cls-1" d="M365.85,98.41h10.34V101H362.82V83.24h12.84v2.63h-9.81v5.27h8.25v2.53h-8.25Z"/><path class="cls-1" d="M385,83.24V101h-3.13V83.24Z"/><path class="cls-1" d="M393.44,85.74a9.72,9.72,0,0,1,13.34,0,8.8,8.8,0,0,1,0,12.82,9.72,9.72,0,0,1-13.34,0,8.8,8.8,0,0,1,0-12.82Zm2.24,10.83a6.23,6.23,0,1,0-1.83-4.42A6.06,6.06,0,0,0,395.68,96.57Z"/><path class="cls-1" d="M439.42,101l-1.74-3.93h-8.4L427.56,101h-3.28l8.4-17.79h1.59l8.4,17.79Zm-6-13.42-3.07,7h6.17Z"/><path class="cls-1" d="M463.84,83.24h1.72V101h-3.11V90l-5.92,8.83L450.6,90v11h-3.11V83.24h1.35l7.5,10.84Z"/><path class="cls-1" d="M483.42,86.9a3.55,3.55,0,0,1-1.31,2.88,5.08,5.08,0,0,1,3.47,1.87,5.75,5.75,0,0,1,1.32,3.76,5.85,5.85,0,0,1-1.42,4,4.94,4.94,0,0,1-4,1.64H472V83.24h7.55a3.93,3.93,0,0,1,2.75,1.06A3.45,3.45,0,0,1,483.42,86.9Zm-8.4-1v3.61h3.81a1.65,1.65,0,0,0,1.36-.55,1.89,1.89,0,0,0,.46-1.25,1.63,1.63,0,0,0-.61-1.29,2.36,2.36,0,0,0-1.61-.52Zm0,12.54h4.87a3.87,3.87,0,0,0,2.82-.91,3.17,3.17,0,0,0,.94-2.4,3.29,3.29,0,0,0-1-2.36,3.69,3.69,0,0,0-2.78-1H475Z"/><path class="cls-1" d="M495.51,83.24V101h-3.13V83.24Z"/><path class="cls-1" d="M505,98.41h10.35V101H502V83.24h12.84v2.63H505v5.27h8.25v2.53H505Z"/><path class="cls-1" d="M533.55,83.24h3.11V101h-1.54L524,88.85V101h-3.1V83.24h1.49l11.12,12.25Z"/><path class="cls-1" d="M556.87,83.24v2.63H551V101h-3.1V85.87h-5.83V83.24Z"/><path class="cls-1" d="M565.27,98.41h10.34V101H562.24V83.24h12.84v2.63h-9.81v5.27h8.25v2.53h-8.25Z"/><path class="cls-2" d="M165.25,35.05a10.29,10.29,0,0,1-4.22-.84,9.07,9.07,0,0,1-3.45-2.78c-1.72-2.21-2.65-5.1-3.56-7.9-1.22-3.76-2.37-7.3-5.15-8.34a5.54,5.54,0,0,0-5.73,1c-1.61,1.41-2.41,3.32-3.19,6a16.45,16.45,0,0,1-3.38,6.78,11.22,11.22,0,0,1-7.38,3.47A1.29,1.29,0,1,1,129,29.8a8.67,8.67,0,0,0,5.66-2.63,13.86,13.86,0,0,0,2.81-5.77c.71-2.42,1.66-5.17,4-7.18a8.17,8.17,0,0,1,4-1.89,8.46,8.46,0,0,1,4.38.44c3.94,1.48,5.34,5.79,6.69,10,.84,2.58,1.71,5.26,3.14,7.11a6.85,6.85,0,0,0,6.35,2.6,1.27,1.27,0,0,1,1.36,1.2,1.29,1.29,0,0,1-1.2,1.37Z"/><path class="cls-3" d="M162.21,40.43a1.34,1.34,0,0,1-.4-.06,20.58,20.58,0,0,1-4.4-2,15.6,15.6,0,0,1-3.77-3.16,13.73,13.73,0,0,1-3-6.93c-.09-.56-.15-1.1-.21-1.63a8.82,8.82,0,0,0-1-3.83,2.56,2.56,0,0,0-2.26-1.37,1.59,1.59,0,0,0-1.33,1.07,22.75,22.75,0,0,1-13.65,15.83,1.29,1.29,0,0,1-.95-2.4,20.14,20.14,0,0,0,12.11-14.11l0-.1,0-.09A4.14,4.14,0,0,1,147,18.89a4.58,4.58,0,0,1,2.62.6,5.69,5.69,0,0,1,2,2,11.08,11.08,0,0,1,1.34,4.9c.05.49.1,1,.18,1.5a11.28,11.28,0,0,0,2.45,5.65,14.92,14.92,0,0,0,7,4.37,1.29,1.29,0,0,1-.39,2.52Z"/><path class="cls-4" d="M135.67,42.62a1.29,1.29,0,0,1-.48-2.48,18.55,18.55,0,0,0,11.12-12.69,1.29,1.29,0,1,1,2.51.58,20.1,20.1,0,0,1-4.94,9.17,21.6,21.6,0,0,1-7.73,5.33A1.36,1.36,0,0,1,135.67,42.62Z"/><path class="cls-5" d="M139.79,46.23a1.29,1.29,0,0,1-.49-2.48,21.36,21.36,0,0,0,8-6.26,3.64,3.64,0,0,1,2-1.52,2.82,2.82,0,0,1,2.26.48,6.6,6.6,0,0,1,1.29,1.21l.21.25a10.54,10.54,0,0,0,5.74,4,1.29,1.29,0,0,1-.61,2.5,13,13,0,0,1-7.08-4.81c-.08-.08-.14-.16-.21-.24-.73-.84-1-.86-1-.86a2.12,2.12,0,0,0-.55.58,23.76,23.76,0,0,1-9,7.08A1.36,1.36,0,0,1,139.79,46.23Z"/><path class="cls-6" d="M143.36,50.13a1.26,1.26,0,0,1-1-.44,1.28,1.28,0,0,1,.11-1.82,61.86,61.86,0,0,1,5.56-4.38,4,4,0,0,1,2.66-.91,4,4,0,0,1,2.18,1.12L155.63,46A1.29,1.29,0,0,1,154,48l-2.72-2.31a2.23,2.23,0,0,0-.77-.52c-.22,0-.73.33-.93.47a59.87,59.87,0,0,0-5.33,4.19A1.26,1.26,0,0,1,143.36,50.13Z"/><path class="cls-7" d="M147.86,54.14a1.25,1.25,0,0,1-.59-.14,1.29,1.29,0,0,1-.56-1.74,12.36,12.36,0,0,1,4.13-4.42A1.29,1.29,0,1,1,152.29,50,9.83,9.83,0,0,0,149,53.44,1.28,1.28,0,0,1,147.86,54.14Z"/><path class="cls-8" d="M165.5,29.6a7.24,7.24,0,0,1-2.07-.28,6.35,6.35,0,0,1-3.15-2.15c-1.48-1.84-2.24-4.44-3-7.2-1.34-4.63-2.73-9.42-7.59-11.09-5.93-2-10.84,2.88-13.24,7.71-.64,1.28-1.16,2.57-1.66,3.82a25,25,0,0,1-1.87,4c-.95,1.46-2.1,2.11-3.42,1.93A3.18,3.18,0,0,1,127.34,25a3.9,3.9,0,0,1-.73-2.26c0-4,1.74-8.72,4.76-12.89a28.5,28.5,0,0,1,5.07-5.37A21.51,21.51,0,0,1,142.66.94a14.27,14.27,0,0,1,8.63-.48,16.09,16.09,0,0,1,8.2,5.65,27.64,27.64,0,0,1,3.85,7.11,44.22,44.22,0,0,1,2,6.76c.22,1.09.82,1.46,1.09,1.42s.57-.62.44-1.78v-.07c0-.08-.48-7.52-4.57-12a1.29,1.29,0,1,1,1.9-1.74,20.23,20.23,0,0,1,4.42,8.76,27.65,27.65,0,0,1,.82,4.78c.3,2.83-1.09,4.34-2.61,4.57a3.14,3.14,0,0,1-2.57-.81,4.64,4.64,0,0,1-1.45-2.65c-.64-3.18-2.66-9.45-5.35-12.74-4.91-6-10.3-5.69-14-4.38a22.51,22.51,0,0,0-10.07,8c-2.72,3.73-4.27,7.88-4.27,11.37,0,.53.33,1,.62,1,.76.11,1.75-2.36,2.55-4.35.49-1.23,1.06-2.63,1.74-4a20.23,20.23,0,0,1,6.1-7.37,11,11,0,0,1,10.28-1.63,11.55,11.55,0,0,1,6.45,5.48,32.27,32.27,0,0,1,2.79,7.33c.72,2.5,1.41,4.87,2.57,6.3.77.95,2,1.94,5.12,1.23a1.29,1.29,0,1,1,.58,2.51A10.92,10.92,0,0,1,165.5,29.6Z"/><path class="cls-9" d="M166.1,58.17,160.78,64H150.13l9.4-10.15a1,1,0,0,1,1.23-.15l5.21,3.4A.73.73,0,0,1,166.1,58.17Z"/><path class="cls-1" d="M32.75,87.28H11.84a6.69,6.69,0,0,0,6.91,5q3.24,0,5.89-4l7.21,5.83a15.5,15.5,0,0,1-6.22,5.11,20.34,20.34,0,0,1-8.8,1.86A16.1,16.1,0,0,1,4.75,96.15,17.7,17.7,0,0,1,4.75,72a16.06,16.06,0,0,1,12.08-4.93q7.26,0,11.62,4.75T32.81,84.1ZM11.84,80.67h9.73a4.69,4.69,0,0,0-1.32-3.12,4.34,4.34,0,0,0-3.42-1.5,4.56,4.56,0,0,0-3.19,1.35A5.86,5.86,0,0,0,11.84,80.67Z"/><path class="cls-1" d="M59.79,87.28,67.24,94a15.65,15.65,0,0,1-5.68,5.17A15.39,15.39,0,0,1,54.14,101a17.88,17.88,0,0,1-12.71-5,16.36,16.36,0,0,1,0-24,17.89,17.89,0,0,1,12.71-5A15.52,15.52,0,0,1,61.68,69a15.91,15.91,0,0,1,5.68,5.1l-7.57,6.79a6.85,6.85,0,0,0-2.34-2.61,6,6,0,0,0-7.79,1,7,7,0,0,0-1.83,4.84,6.76,6.76,0,0,0,1.87,4.81,6,6,0,0,0,7.75,1A6.88,6.88,0,0,0,59.79,87.28Z"/><path class="cls-1" d="M74.6,72.05a18.76,18.76,0,0,1,25.42,0,16.36,16.36,0,0,1,0,24,18.79,18.79,0,0,1-25.42,0,16.36,16.36,0,0,1,0-24Zm8.27,16.86a6,6,0,0,0,8.89,0,6.8,6.8,0,0,0,1.86-4.81,7,7,0,0,0-1.83-4.84,6,6,0,0,0-9,0A7,7,0,0,0,81,84.1,6.76,6.76,0,0,0,82.87,88.91Z"/><path class="cls-1" d="M128.71,73.94q8,1.74,11.87,4.66t3.88,8.62a12.25,12.25,0,0,1-4.66,10.13Q135.14,101,127.33,101a49.3,49.3,0,0,1-9.79-.81A36.17,36.17,0,0,1,108.76,97l4.45-9A33.29,33.29,0,0,0,127.75,91q4.33,0,4.33-2.71a2.41,2.41,0,0,0-1.38-2,20.57,20.57,0,0,0-5.35-1.74A63.74,63.74,0,0,1,119,82.78a24.29,24.29,0,0,1-4.84-2.32,9.16,9.16,0,0,1-3.54-3.78,12.34,12.34,0,0,1-1.15-5.56,12.4,12.4,0,0,1,4.42-9.86q4.42-3.78,12-3.78A48.42,48.42,0,0,1,143,61L138,70.28a36.87,36.87,0,0,0-12.5-2.77,4.37,4.37,0,0,0-2.74.73,2.23,2.23,0,0,0-.93,1.86,2.41,2.41,0,0,0,1.39,2.13A21.62,21.62,0,0,0,128.71,73.94Z"/><path class="cls-1" d="M149.44,101V67.09h12V101Z"/><path class="cls-1" d="M185.92,67.09q7.88,0,10.94,3.49t3.06,12V101H188V82.54a7,7,0,0,0-.9-4.09q-.9-1.2-3.36-1.2a5.61,5.61,0,0,0-4.15,1.62V101h-12V67.09h12v1.74A13.18,13.18,0,0,1,185.92,67.09Z"/><path class="cls-1" d="M226.9,76.35h-7.09v8.83c0,2.68.19,4.39.57,5.11s1.53,1.08,3.46,1.08q1.74,0,2.94-.06v8.35l-.3.12q-.3.12-1,.33t-1.68.42a22.84,22.84,0,0,1-2.47.36q-1.5.15-3.12.15a10.32,10.32,0,0,1-7.45-2.76c-1.93-1.84-2.89-4.51-2.89-8V76.35H204V67.09h3.9v-12h12v12h7.09Z"/><path class="cls-1" d="M262.41,87.28H241.5a6.7,6.7,0,0,0,6.91,5c2.16,0,4.13-1.34,5.89-4l7.21,5.83a15.43,15.43,0,0,1-6.22,5.11,20.34,20.34,0,0,1-8.8,1.86,16.1,16.1,0,0,1-12.08-4.89,17.7,17.7,0,0,1,0-24.13,16.06,16.06,0,0,1,12.08-4.93,15.06,15.06,0,0,1,11.63,4.75q4.35,4.75,4.35,12.26ZM241.5,80.67h9.74a4.7,4.7,0,0,0-1.33-3.12,4.34,4.34,0,0,0-3.42-1.5,4.59,4.59,0,0,0-3.19,1.35A5.86,5.86,0,0,0,241.5,80.67Z"/><path class="cls-1" d="M265.54,97.86l4.38-8.35a46.52,46.52,0,0,0,5.68,2.07,18.54,18.54,0,0,0,4.78.57q2.22,0,2.22-1.26a1.17,1.17,0,0,0-.72-1,21.14,21.14,0,0,0-3.72-1.12,22.46,22.46,0,0,1-9-3.72c-2-1.6-3.06-4-3.06-7.27A9.63,9.63,0,0,1,269.5,70q3.44-2.92,9.38-2.92a37.09,37.09,0,0,1,13.34,2.71l-4,8.29a28.74,28.74,0,0,0-9.55-2,3.44,3.44,0,0,0-1.66.24,1,1,0,0,0-.33.84q0,.72,1.05,1.2a26.61,26.61,0,0,0,4.18,1.2q6,1.32,8.71,3.73t2.77,7a9.51,9.51,0,0,1-3.67,8Q286,101,280,101a37.67,37.67,0,0,1-7.6-.63A30.07,30.07,0,0,1,265.54,97.86Z"/><path class="cls-1" d="M329.47,87.28H308.56a6.7,6.7,0,0,0,6.91,5c2.16,0,4.13-1.34,5.89-4l7.21,5.83a15.43,15.43,0,0,1-6.22,5.11,20.34,20.34,0,0,1-8.8,1.86,16.1,16.1,0,0,1-12.08-4.89,17.7,17.7,0,0,1,0-24.13,16.06,16.06,0,0,1,12.08-4.93,15.06,15.06,0,0,1,11.63,4.75q4.35,4.75,4.35,12.26Zm-20.91-6.61h9.74A4.7,4.7,0,0,0,317,77.55a4.34,4.34,0,0,0-3.42-1.5,4.59,4.59,0,0,0-3.19,1.35A5.86,5.86,0,0,0,308.56,80.67Z"/></g></g></svg>